<svg width="24" height="24" viewBox="0 0 24 24" fill="none" xmlns="http://www.w3.org/2000/svg">
<path d="M17.4001 17.4001C17.8775 17.4001 18.3354 17.5898 18.6729 17.9273C19.0105 18.2649 19.2001 18.7227 19.2001 19.2001C19.2001 19.6775 19.0105 20.1354 18.6729 20.4729C18.3354 20.8105 17.8775 21.0002 17.4001 21.0002C17.1642 21.0002 16.9305 20.9535 16.7126 20.863C16.4948 20.7724 16.2969 20.6397 16.1305 20.4724C15.9641 20.3051 15.8323 20.1066 15.7428 19.8883C15.6534 19.67 15.6079 19.4361 15.6091 19.2001C15.6091 18.2056 16.4047 17.4001 17.4001 17.4001ZM3 3H5.93852L6.79083 4.80002H20.1001C20.2565 4.80004 20.4102 4.84082 20.5461 4.91834C20.6819 4.99585 20.7952 5.10742 20.8748 5.24206C20.9543 5.37669 20.9975 5.52974 20.9999 5.68611C21.0023 5.84249 20.9639 5.9968 20.8886 6.13383L17.6701 11.9749C17.5141 12.2555 17.2859 12.4892 17.0091 12.6519C16.7323 12.8146 16.4171 12.9003 16.096 12.9001H9.39095L8.58365 14.3671L8.55485 14.4751C8.55485 14.6011 8.65565 14.7001 8.77985 14.7001H19.2001V16.5001H8.40005C8.08754 16.5002 7.7804 16.4189 7.50885 16.2642C7.23729 16.1096 7.01068 15.8869 6.8513 15.6181C6.69193 15.3493 6.60528 15.0436 6.59988 14.7312C6.59449 14.4187 6.67053 14.1102 6.82053 13.8361L8.03734 11.6284L4.80002 4.80002H3V3ZM8.40005 17.4001C8.87744 17.4001 9.33528 17.5898 9.67285 17.9273C10.0104 18.2649 10.2001 18.7227 10.2001 19.2001C10.2001 19.6775 10.0104 20.1354 9.67285 20.4729C9.33528 20.8105 8.87744 21.0002 8.40005 21.0002C8.16409 21.0002 7.93045 20.9535 7.71257 20.863C7.49468 20.7724 7.29684 20.6397 7.13041 20.4724C6.96398 20.3051 6.83225 20.1066 6.74277 19.8883C6.6533 19.67 6.60785 19.4361 6.60903 19.2001C6.60903 18.2056 7.40464 17.4001 8.40005 17.4001ZM16.5001 11.1019L19.0003 6.60183H7.62424L9.75006 11.1019H16.5001Z" fill="white"/>
</svg>
