<svg width="10" height="16" viewBox="0 0 10 16" fill="none" xmlns="http://www.w3.org/2000/svg">
<path d="M0.4435 13.5481L6.33616 7.99254L0.443499 2.43701C0.302892 2.30445 0.191358 2.14708 0.115262 1.97388C0.0391664 1.80068 -6.27305e-07 1.61504 -6.36981e-07 1.42757C-6.46657e-07 1.2401 0.0391664 1.05446 0.115262 0.881262C0.191358 0.70806 0.302892 0.550685 0.443499 0.418123C0.584106 0.285561 0.75103 0.180408 0.934741 0.108666C1.11845 0.0369243 1.31535 -5.74959e-08 1.5142 -6.61878e-08C1.71305 -7.48798e-08 1.90995 0.0369243 2.09366 0.108666C2.27737 0.180408 2.4443 0.285561 2.5849 0.418123L9.55586 6.99025C9.69665 7.12272 9.80835 7.28006 9.88456 7.45327C9.96077 7.62649 10 7.81217 10 7.9997C10 8.18722 9.96077 8.3729 9.88456 8.54612C9.80835 8.71933 9.69665 8.87668 9.55586 9.00914L2.5849 15.5813C2.4444 15.714 2.27751 15.8193 2.09378 15.8912C1.91006 15.963 1.71311 16 1.5142 16C1.3153 16 1.11834 15.963 0.934619 15.8912C0.750893 15.8193 0.584003 15.714 0.4435 15.5813C-0.133616 15.0229 -0.148804 14.1065 0.4435 13.5481Z" fill="#E5E5E5"/>
</svg>
