<svg width="10" height="16" viewBox="0 0 10 16" fill="none" xmlns="http://www.w3.org/2000/svg">
<path d="M9.5565 2.45194L3.66384 8.00746L9.5565 13.563C9.69711 13.6956 9.80864 13.8529 9.88474 14.0261C9.96083 14.1993 10 14.385 10 14.5724C10 14.7599 9.96083 14.9455 9.88474 15.1187C9.80864 15.2919 9.69711 15.4493 9.5565 15.5819C9.41589 15.7144 9.24897 15.8196 9.06526 15.8913C8.88155 15.9631 8.68465 16 8.4858 16C8.28695 16 8.09005 15.9631 7.90634 15.8913C7.72263 15.8196 7.5557 15.7144 7.4151 15.5819L0.444143 9.00975C0.303352 8.87728 0.191654 8.71994 0.115442 8.54673C0.03923 8.37351 5.95773e-07 8.18783 6.0397e-07 8.0003C6.12167e-07 7.81278 0.03923 7.62709 0.115442 7.45388C0.191654 7.28067 0.303352 7.12332 0.444143 6.99086L7.4151 0.418731C7.5556 0.285995 7.72249 0.180687 7.90622 0.108835C8.08994 0.0369838 8.28689 -7.48823e-08 8.4858 -6.61878e-08C8.6847 -5.74934e-08 8.88166 0.0369839 9.06538 0.108836C9.24911 0.180687 9.416 0.285995 9.5565 0.418732C10.1336 0.977148 10.1488 1.89352 9.5565 2.45194Z" fill="#E5E5E5"/>
</svg>
