<svg width="58" height="58" viewBox="0 0 58 58" fill="none" xmlns="http://www.w3.org/2000/svg">
<path d="M26.583 36.25H31.4163V41.0834H26.583V36.25ZM26.583 16.9167H31.4163V31.4167H26.583V16.9167ZM28.9755 4.83337C15.6355 4.83337 4.83301 15.66 4.83301 29C4.83301 42.34 15.6355 53.1667 28.9755 53.1667C42.3397 53.1667 53.1663 42.34 53.1663 29C53.1663 15.66 42.3397 4.83337 28.9755 4.83337ZM28.9997 48.3334C18.318 48.3334 9.66634 39.6817 9.66634 29C9.66634 18.3184 18.318 9.66671 28.9997 9.66671C39.6813 9.66671 48.333 18.3184 48.333 29C48.333 39.6817 39.6813 48.3334 28.9997 48.3334Z" fill="#E22F22"/>
</svg>
