<svg width="28" height="28" viewBox="0 0 28 28" fill="none" xmlns="http://www.w3.org/2000/svg">
<g clip-path="url(#clip0)">
<path d="M9.86238 6.93586C9.87628 6.92655 9.89048 6.91762 9.90523 6.90909C9.9192 6.90101 9.93325 6.89348 9.94753 6.8865C11.1429 6.20296 12.5262 5.81206 13.9991 5.81206C15.4722 5.81206 16.8559 6.2032 18.0515 6.88696C18.0655 6.89387 18.0792 6.90125 18.0929 6.90909C18.1073 6.91731 18.1213 6.92616 18.1349 6.93524C20.5575 8.3589 22.1872 10.9927 22.1872 14C22.1872 17.0072 20.5575 19.6409 18.135 21.0646C18.1214 21.0738 18.1073 21.0825 18.0929 21.0909C18.0792 21.0989 18.0653 21.1062 18.0514 21.1131C16.8558 21.7969 15.4722 22.1879 13.9991 22.1879C12.5261 22.1879 11.1431 21.7971 9.94769 21.1136C9.93333 21.1065 9.91928 21.099 9.90523 21.0909C9.89056 21.0825 9.8762 21.0734 9.86223 21.0641C7.44052 19.6402 5.81124 17.0067 5.81124 14C5.81117 10.9931 7.44028 8.3596 9.86238 6.93586ZM13.9991 7.20933C13.0122 7.20933 12.0737 7.421 11.2269 7.80119L13.061 10.978C13.3574 10.8858 13.6726 10.836 13.9991 10.836C14.3256 10.836 14.6406 10.8858 14.9372 10.9779L16.7712 7.80111C15.9243 7.42092 14.9859 7.20933 13.9991 7.20933ZM12.2323 14C12.2323 14.9743 13.0248 15.7669 13.9991 15.7669C14.9734 15.7669 15.7661 14.9743 15.7661 14C15.7661 13.0257 14.9734 12.2331 13.9991 12.2331C13.0248 12.2332 12.2323 13.0258 12.2323 14ZM17.9801 8.50157L16.1463 11.678C16.6078 12.1049 16.9421 12.6674 17.0855 13.3014H20.7543C20.552 11.3311 19.504 9.60783 17.9801 8.50157ZM20.7543 14.6986H17.0855C16.9421 15.3326 16.6077 15.895 16.1462 16.322L17.98 19.4984C19.504 18.3922 20.552 16.6688 20.7543 14.6986ZM13.9991 20.7908C14.9859 20.7908 15.9244 20.5791 16.7712 20.199L14.9372 17.0222C14.6406 17.1144 14.3256 17.164 13.9991 17.164C13.6726 17.164 13.3574 17.1143 13.061 17.0221L11.2269 20.1989C12.0737 20.5791 13.0122 20.7908 13.9991 20.7908ZM10.018 19.4984L11.8519 16.3218C11.3907 15.8949 11.0563 15.3324 10.9128 14.6986H7.24406C7.44634 16.6686 8.49446 18.3921 10.018 19.4984ZM10.9128 13.3014C11.0563 12.6675 11.3906 12.1051 11.8519 11.6781L10.018 8.50165C8.49446 9.60791 7.44634 11.3313 7.24413 13.3014H10.9128ZM3.52094 12.4946C3.56953 12.5049 3.61805 12.5098 3.66571 12.5098C3.989 12.5098 4.27923 12.2841 4.34862 11.9551C5.15294 8.13923 8.13833 5.15383 11.9542 4.34944C12.3317 4.26988 12.5733 3.89924 12.4937 3.52176C12.414 3.14429 12.0437 2.90258 11.666 2.98229C7.30871 3.90079 3.89981 7.30977 2.9814 11.667C2.90184 12.0445 3.14339 12.415 3.52094 12.4946ZM15.5047 24.4782C15.5741 24.8071 15.8643 25.0329 16.1875 25.0329C16.2353 25.0329 16.2838 25.028 16.3324 25.0178C20.6894 24.0993 24.0982 20.6904 25.0168 16.3332C25.0964 15.9557 24.8549 15.5851 24.4773 15.5055C24.0998 15.426 23.7292 15.6674 23.6497 16.045C22.8452 19.8608 19.8599 22.8462 16.0442 23.6505C15.6667 23.7301 15.4251 24.1007 15.5047 24.4782ZM14.0004 13.3014H13.998C13.6121 13.3014 13.2994 13.6141 13.2994 14C13.2994 14.3858 13.6121 14.6986 13.998 14.6986C14.3838 14.6986 14.6978 14.3858 14.6978 14C14.6978 13.6141 14.3862 13.3014 14.0004 13.3014ZM13.9991 0C21.7187 0 27.999 6.28035 27.999 14C27.999 21.7196 21.7187 27.9999 13.9991 27.9999C6.27961 27.9999 -0.000585556 21.7196 -0.000585556 14C-0.000585556 6.28035 6.27961 0 13.9991 0ZM13.9991 26.6028C20.9483 26.6028 26.6018 20.9493 26.6018 14C26.6018 7.05082 20.9483 1.39719 13.9991 1.39719C7.05008 1.39719 1.3966 7.05074 1.3966 14C1.3966 20.9492 7.05 26.6028 13.9991 26.6028Z" fill="#E22F22"/>
</g>
<defs>
<clipPath id="clip0">
<rect width="28" height="28" transform="matrix(-1 0 0 1 28 0)" fill="white"/>
</clipPath>
</defs>
</svg>
