<svg width="20" height="20" viewBox="0 0 20 20" fill="none" xmlns="http://www.w3.org/2000/svg">
<path d="M17 0.977539H15C14.7348 0.977539 14.4804 1.08053 14.2929 1.26384C14.1054 1.44716 14 1.69579 14 1.95504V18.5647H18V1.95504C18 1.69579 17.8946 1.44716 17.7071 1.26384C17.5196 1.08053 17.2652 0.977539 17 0.977539ZM11 6.84252H9C8.73478 6.84252 8.48043 6.94551 8.29289 7.12883C8.10536 7.31214 8 7.56077 8 7.82002V18.5647H12V7.82002C12 7.56077 11.8946 7.31214 11.7071 7.12883C11.5196 6.94551 11.2652 6.84252 11 6.84252ZM5 12.7075H3C2.73478 12.7075 2.48043 12.8105 2.29289 12.9938C2.10536 13.1771 2 13.4258 2 13.685V18.5647H6V13.685C6 13.4258 5.89464 13.1771 5.70711 12.9938C5.51957 12.8105 5.26522 12.7075 5 12.7075Z" fill="#AAAAAA"/>
</svg>
