<svg width="44" height="44" viewBox="0 0 44 44" fill="none" xmlns="http://www.w3.org/2000/svg">
<path d="M28.3 15.71C28.2075 15.6173 28.0976 15.5437 27.9766 15.4935C27.8556 15.4434 27.7259 15.4175 27.595 15.4175C27.464 15.4175 27.3343 15.4434 27.2134 15.4935C27.0924 15.5437 26.9825 15.6173 26.89 15.71L22 20.59L17.11 15.7C17.0174 15.6074 16.9075 15.534 16.7865 15.4839C16.6656 15.4337 16.5359 15.408 16.405 15.408C16.274 15.408 16.1444 15.4337 16.0234 15.4839C15.9025 15.534 15.7926 15.6074 15.7 15.7C15.6074 15.7926 15.534 15.9025 15.4839 16.0234C15.4337 16.1444 15.408 16.274 15.408 16.405C15.408 16.5359 15.4337 16.6656 15.4839 16.7865C15.534 16.9075 15.6074 17.0174 15.7 17.11L20.59 22L15.7 26.89C15.6074 26.9826 15.534 27.0925 15.4839 27.2134C15.4337 27.3344 15.408 27.464 15.408 27.595C15.408 27.7259 15.4337 27.8556 15.4839 27.9765C15.534 28.0975 15.6074 28.2074 15.7 28.3C15.7926 28.3926 15.9025 28.466 16.0234 28.5161C16.1444 28.5662 16.274 28.592 16.405 28.592C16.5359 28.592 16.6656 28.5662 16.7865 28.5161C16.9075 28.466 17.0174 28.3926 17.11 28.3L22 23.41L26.89 28.3C26.9826 28.3926 27.0925 28.466 27.2134 28.5161C27.3344 28.5662 27.464 28.592 27.595 28.592C27.7259 28.592 27.8556 28.5662 27.9765 28.5161C28.0975 28.466 28.2074 28.3926 28.3 28.3C28.3926 28.2074 28.466 28.0975 28.5161 27.9765C28.5662 27.8556 28.592 27.7259 28.592 27.595C28.592 27.464 28.5662 27.3344 28.5161 27.2134C28.466 27.0925 28.3926 26.9826 28.3 26.89L23.41 22L28.3 17.11C28.68 16.73 28.68 16.09 28.3 15.71Z" fill="#555555"/>
</svg>
