<svg width="40" height="40" viewBox="0 0 40 40" fill="none" xmlns="http://www.w3.org/2000/svg">
<path d="M26.6899 13.3207C26.5917 13.2223 26.475 13.1442 26.3465 13.0909C26.2181 13.0376 26.0804 13.0102 25.9413 13.0102C25.8022 13.0102 25.6645 13.0376 25.536 13.0909C25.4076 13.1442 25.2909 13.2223 25.1927 13.3207L20 18.5027L14.8074 13.3101C14.7091 13.2118 14.5923 13.1338 14.4639 13.0806C14.3354 13.0274 14.1978 13 14.0587 13C13.9197 13 13.782 13.0274 13.6536 13.0806C13.5251 13.1338 13.4084 13.2118 13.3101 13.3101C13.2118 13.4084 13.1338 13.5251 13.0806 13.6536C13.0274 13.782 13 13.9197 13 14.0587C13 14.1978 13.0274 14.3354 13.0806 14.4639C13.1338 14.5923 13.2118 14.709 13.3101 14.8074L18.5028 20L13.3101 25.1926C13.2118 25.291 13.1338 25.4077 13.0806 25.5361C13.0274 25.6646 13 25.8022 13 25.9413C13 26.0803 13.0274 26.218 13.0806 26.3464C13.1338 26.4749 13.2118 26.5916 13.3101 26.6899C13.4084 26.7882 13.5251 26.8662 13.6536 26.9194C13.782 26.9726 13.9197 27 14.0587 27C14.1978 27 14.3354 26.9726 14.4639 26.9194C14.5923 26.8662 14.7091 26.7882 14.8074 26.6899L20 21.4973L25.1927 26.6899C25.291 26.7882 25.4077 26.8662 25.5361 26.9194C25.6646 26.9726 25.8023 27 25.9413 27C26.0803 27 26.218 26.9726 26.3464 26.9194C26.4749 26.8662 26.5916 26.7882 26.6899 26.6899C26.7882 26.5916 26.8662 26.4749 26.9194 26.3464C26.9726 26.218 27 26.0803 27 25.9413C27 25.8022 26.9726 25.6646 26.9194 25.5361C26.8662 25.4077 26.7882 25.291 26.6899 25.1926L21.4973 20L26.6899 14.8074C27.0934 14.4038 27.0934 13.7242 26.6899 13.3207Z" fill="#AAAAAA"/>
</svg>
