<svg width="20" height="20" viewBox="0 0 20 20" fill="none" xmlns="http://www.w3.org/2000/svg">
<path d="M0.65404 9.44861H4.87836C5.23962 9.44861 5.53247 9.7415 5.53247 10.1027V18.5513C5.53247 18.9125 5.23962 19.2054 4.87836 19.2054H0.65404C0.292819 19.2054 -7.43866e-05 18.9126 -7.43866e-05 18.5513V10.1027C-3.52859e-05 9.74142 0.292819 9.44861 0.65404 9.44861ZM1.30815 17.8972H4.22428V10.7568H1.30815V17.8972Z" fill="#555555"/>
<path d="M15.1216 1H19.3459C19.7071 1 20 1.29282 20 1.65411V18.5513C20 18.9125 19.7071 19.2054 19.3459 19.2054H15.1216C14.7603 19.2054 14.4675 18.9125 14.4675 18.5513V1.65407C14.4675 1.29282 14.7603 1 15.1216 1ZM15.7757 17.8971H18.6918V2.30819H15.7757V17.8971Z" fill="#555555"/>
<path d="M7.85816 5.22412H12.0825C12.4437 5.22412 12.7366 5.51698 12.7366 5.87823V18.5511C12.7366 18.9123 12.4437 19.2052 12.0825 19.2052H7.85812C7.4969 19.2052 7.204 18.9124 7.204 18.5511V5.87823C7.20404 5.51701 7.4969 5.22412 7.85816 5.22412ZM8.51224 17.897H11.4284V6.53235H8.51224V17.897Z" fill="#555555"/>
</svg>
