<svg width="28" height="28" viewBox="0 0 28 28" fill="none" xmlns="http://www.w3.org/2000/svg">
<g clip-path="url(#clip0)">
<path d="M0.0884457 2.56852L1.95582 5.83624C2.01881 5.94666 2.12424 6.02655 2.24753 6.05747L3.9897 6.49301L9.96495 12.4683L10.6252 11.8082L4.5564 5.73964C4.49668 5.67973 4.42178 5.63729 4.33978 5.61674L2.66579 5.19675L1.0759 2.41297L2.43899 1.04989L5.22392 2.6413L5.6441 4.3153C5.66446 4.39749 5.70709 4.47258 5.76681 4.5323L11.8356 10.6011L12.4956 9.94086L6.52037 3.9656L6.08483 2.22439C6.05391 2.10091 5.97402 1.99529 5.8636 1.93211L2.59569 0.0649231C2.41345 -0.0387773 2.18416 -0.00805127 2.03552 0.14001L0.168333 2.00739C0.0181598 2.15506 -0.0144867 2.38474 0.0884457 2.56852Z" fill="#E22F22"/>
<path d="M19.4966 9.20032L9.22663 19.4705L8.56641 18.8103L18.8366 8.54028L19.4966 9.20032Z" fill="#E22F22"/>
<path d="M7.42915 19.8338C7.34466 19.6933 7.19295 19.6074 7.02894 19.6074H4.22807C4.06426 19.6074 3.91236 19.6933 3.82806 19.8338L2.42753 22.1679C2.33861 22.3157 2.33861 22.5007 2.42753 22.6487L3.82806 24.9828C3.91236 25.1232 4.06426 25.2092 4.22807 25.2092H7.02894C7.19295 25.2092 7.34466 25.1232 7.42915 24.9828L8.82949 22.6487C8.91841 22.5007 8.91841 22.3157 8.82949 22.1679L7.42915 19.8338ZM6.76489 24.2755H4.49232L3.37197 22.4083L4.49232 20.5409H6.76489L7.88524 22.4083L6.76489 24.2755Z" fill="#E22F22"/>
<path d="M22.4332 11.2046C25.5164 11.215 28.0244 8.72389 28.0348 5.64072C28.0363 5.17138 27.9787 4.70396 27.8633 4.24902C27.8011 3.99879 27.5478 3.84651 27.2976 3.90873C27.2154 3.92928 27.1405 3.97172 27.0806 4.03144L24.1746 6.93544L21.869 6.16709L21.1001 3.86206L24.006 0.95557C24.1883 0.773134 24.1881 0.477588 24.0057 0.295344C23.9455 0.235236 23.8699 0.192603 23.7871 0.172247C20.7971 -0.584958 17.7596 1.225 17.0024 4.21484C16.8874 4.66843 16.83 5.1347 16.8315 5.60269C16.8327 5.97026 16.8705 6.33666 16.945 6.69654L6.72147 16.9199C6.36159 16.8456 5.99518 16.8077 5.62782 16.8064C2.53389 16.8064 0.0258789 19.3144 0.0258789 22.4083C0.0258789 25.502 2.53389 28.0101 5.62782 28.0101C8.72155 28.0101 11.2296 25.502 11.2296 22.4083C11.2284 22.0408 11.1904 21.6743 11.1161 21.3145L13.5636 18.8669L14.634 19.9374C14.8164 20.1196 15.1118 20.1196 15.2942 19.9374L15.5276 19.7038C15.7323 19.5005 16.0632 19.5005 16.2679 19.7038C16.4724 19.9078 16.4728 20.2389 16.2688 20.4434C16.2686 20.4436 16.2683 20.444 16.2679 20.4443L16.0345 20.6777C15.8523 20.8599 15.8523 21.1555 16.0345 21.3377L21.6033 26.9064C23.0679 28.3845 25.4534 28.3953 26.9315 26.9306C28.4095 25.4659 28.4202 23.0803 26.9555 21.6023C26.9477 21.5943 26.9396 21.5862 26.9315 21.5781L21.3628 16.0096C21.1806 15.8274 20.885 15.8274 20.7028 16.0096L20.4695 16.2429C20.2646 16.4465 19.9339 16.4465 19.729 16.2429C19.5246 16.039 19.5241 15.7079 19.728 15.5036C19.7284 15.5032 19.7288 15.503 19.729 15.5026L19.9625 15.2691C20.1447 15.0869 20.1447 14.7913 19.9625 14.6091L18.8921 13.5387L21.3396 11.0911C21.6995 11.1655 22.0659 11.2035 22.4332 11.2046ZM24.2674 27.0766C23.9283 27.076 23.592 27.0147 23.2746 26.8955L26.9204 23.2494C27.4706 24.713 26.7303 26.3453 25.2668 26.8955C24.9474 27.0155 24.6088 27.0769 24.2674 27.0766ZM18.9789 14.9438C18.4619 15.5604 18.5429 16.4795 19.1596 16.9963C19.7015 17.4505 20.4914 17.4501 21.0327 16.995L26.2715 22.2384C26.3284 22.2954 26.3815 22.3555 26.433 22.4166L22.4417 26.4079C22.3804 26.3566 22.3203 26.3034 22.2633 26.2464L17.0205 21.0032C17.5374 20.3865 17.4564 19.4674 16.8398 18.9507C16.2978 18.4963 15.5078 18.4969 14.9664 18.9518L14.2196 18.205L18.2318 14.1987L18.9789 14.9438ZM20.8639 10.2487L10.274 20.8365C10.1578 20.9525 10.1111 21.1209 10.1507 21.2801C10.7911 23.7952 9.27135 26.3533 6.75604 26.9936C4.24092 27.6341 1.68278 26.1143 1.04234 23.599C0.402081 21.0838 1.92187 18.5257 4.43718 17.8852C5.19804 17.6917 5.99518 17.6917 6.75604 17.8852C6.91524 17.9242 7.08327 17.8776 7.19965 17.7622L17.7871 7.17414C17.9031 7.05815 17.9497 6.88973 17.9098 6.73073C17.2738 4.24499 18.7732 1.71431 21.2589 1.07809C21.7287 0.958066 22.2145 0.911977 22.6985 0.942127L20.2359 3.40559C20.1109 3.53041 20.0671 3.71535 20.123 3.883L21.0565 6.68406C21.1032 6.82329 21.2127 6.93275 21.3521 6.97903L24.1531 7.91272C24.3206 7.9686 24.5055 7.92501 24.6305 7.80018L27.093 5.33768C27.0986 5.42679 27.1015 5.51493 27.1015 5.60269C27.1146 8.16774 25.0459 10.2577 22.4809 10.2709C22.0843 10.2729 21.6891 10.2241 21.305 10.1258C21.1458 10.086 20.9774 10.1325 20.8614 10.2485H20.8639V10.2487Z" fill="#E22F22"/>
<path d="M24.1652 23.4786L23.505 24.1388L18.8369 19.4708L19.4969 18.8105L24.1652 23.4786Z" fill="#E22F22"/>
</g>
<defs>
<clipPath id="clip0">
<rect width="28" height="28" fill="white"/>
</clipPath>
</defs>
</svg>
