<svg width="24" height="24" viewBox="0 0 24 24" fill="none" xmlns="http://www.w3.org/2000/svg">
<path d="M4 3.99805H20C20.5304 3.99805 21.0391 4.20876 21.4142 4.58383C21.7893 4.95891 22 5.46761 22 5.99805V17.998C22 18.5285 21.7893 19.0372 21.4142 19.4123C21.0391 19.7873 20.5304 19.998 20 19.998H4C3.46957 19.998 2.96086 19.7873 2.58579 19.4123C2.21071 19.0372 2 18.5285 2 17.998V5.99805C2 5.46761 2.21071 4.95891 2.58579 4.58383C2.96086 4.20876 3.46957 3.99805 4 3.99805ZM12 10.998L20 5.99805H4L12 10.998ZM4 17.998H20V8.36805L12 13.357L4 8.36805V17.998Z" fill="white"/>
</svg>
