<svg width="20" height="20" viewBox="0 0 20 20" fill="none" xmlns="http://www.w3.org/2000/svg">
<path d="M5.41003 1.875C5.08316 1.875 4.76003 1.99375 4.49128 2.20625L4.45378 2.22687L4.43378 2.24562L2.48065 4.25813L2.4994 4.27688C1.89753 4.83437 1.71003 5.66688 1.9719 6.38688C1.97315 6.39 1.97065 6.40188 1.9719 6.40562C2.50128 7.92312 3.85753 10.8494 6.50316 13.4956C9.15941 16.1519 12.1263 17.4519 13.5932 18.0269H13.6119C13.9798 18.1482 14.3728 18.1723 14.7528 18.097C15.1328 18.0217 15.4869 17.8494 15.7807 17.5969L15.7994 17.5781L15.8194 17.5581L17.7544 15.625C18.2732 15.1062 18.2732 14.21 17.7544 13.6912L15.2157 11.1525L15.1957 11.1131C14.6769 10.5944 13.7613 10.5944 13.2425 11.1131L13.2238 11.1331L11.9925 12.3644C11.0544 11.9136 10.1915 11.3206 9.43441 10.6062C8.41191 9.62937 7.88815 8.50625 7.69691 8.06625L8.94566 6.81625C9.47191 6.29 9.48003 5.41875 8.92691 4.9025L8.94566 4.8825L8.88753 4.82437L6.38753 2.24562L6.36691 2.22687L6.32816 2.20625C6.06809 1.99527 5.74427 1.87853 5.4094 1.875H5.41003ZM5.41003 3.125C5.45628 3.125 5.50191 3.1475 5.54753 3.18375L8.04753 5.74188L8.08628 5.78125L8.10503 5.8C8.10066 5.79687 8.14253 5.86063 8.06628 5.9375L6.50378 7.5L6.21003 7.77375L6.34753 8.16375C6.34753 8.16375 7.06628 10.0844 8.57441 11.5238L8.71003 11.6406C10.1625 12.9669 11.875 13.6906 11.875 13.6906L12.2657 13.8669L12.5594 13.5744L14.1219 12.0119C14.2282 11.9056 14.2094 11.9056 14.3157 12.0119L16.875 14.57C16.9813 14.6762 16.9813 14.6387 16.875 14.745L14.9607 16.6594C14.6732 16.9069 14.3688 16.9569 14.0044 16.8356C12.5869 16.2794 9.83566 15.0687 7.38253 12.6169C4.91066 10.1437 3.61878 7.3375 3.14503 5.97687C3.0494 5.7225 3.11815 5.34562 3.34003 5.15625L3.35878 5.1375L3.37878 5.11688L5.27378 3.18375C5.31097 3.14928 5.35882 3.12856 5.4094 3.125H5.41003Z" fill="#222222" stroke="#222222" stroke-width="0.5"/>
</svg>
