<svg width="20" height="20" viewBox="0 0 20 20" fill="none" xmlns="http://www.w3.org/2000/svg">
<path d="M10 1.6665C8.23193 1.6665 6.53624 2.36888 5.286 3.61913C4.03575 4.86937 3.33337 6.56506 3.33337 8.33317C3.33337 12.8332 9.20837 17.9165 9.45837 18.1332C9.60932 18.2623 9.80141 18.3332 10 18.3332C10.1987 18.3332 10.3908 18.2623 10.5417 18.1332C10.8334 17.9165 16.6667 12.8332 16.6667 8.33317C16.6667 6.56506 15.9643 4.86937 14.7141 3.61913C13.4638 2.36888 11.7682 1.6665 10 1.6665ZM10 16.3748C8.22504 14.7082 5.00004 11.1165 5.00004 8.33317C5.00004 7.00709 5.52682 5.73532 6.46451 4.79764C7.40219 3.85996 8.67396 3.33317 10 3.33317C11.3261 3.33317 12.5979 3.85996 13.5356 4.79764C14.4733 5.73532 15 7.00709 15 8.33317C15 11.1165 11.775 14.7165 10 16.3748ZM10 4.99984C9.34077 4.99984 8.6963 5.19533 8.14814 5.56161C7.59998 5.92788 7.17273 6.44847 6.92044 7.05756C6.66815 7.66665 6.60214 8.33687 6.73076 8.98347C6.85937 9.63008 7.17684 10.224 7.64302 10.6902C8.10919 11.1564 8.70314 11.4738 9.34974 11.6025C9.99634 11.7311 10.6666 11.6651 11.2757 11.4128C11.8847 11.1605 12.4053 10.7332 12.7716 10.1851C13.1379 9.63691 13.3334 8.99244 13.3334 8.33317C13.3334 7.44912 12.9822 6.60127 12.3571 5.97615C11.7319 5.35103 10.8841 4.99984 10 4.99984ZM10 9.99984C9.6704 9.99984 9.34817 9.90209 9.07409 9.71895C8.80001 9.53582 8.58639 9.27552 8.46024 8.97098C8.3341 8.66643 8.30109 8.33132 8.3654 8.00802C8.42971 7.68472 8.58844 7.38775 8.82153 7.15466C9.05462 6.92157 9.35159 6.76284 9.67489 6.69853C9.99819 6.63422 10.3333 6.66723 10.6378 6.79337C10.9424 6.91952 11.2027 7.13314 11.3858 7.40722C11.569 7.6813 11.6667 8.00354 11.6667 8.33317C11.6667 8.7752 11.4911 9.19912 11.1786 9.51168C10.866 9.82424 10.4421 9.99984 10 9.99984Z" fill="#222222"/>
</svg>
