<svg width="16" height="12" viewBox="0 0 16 12" fill="none" xmlns="http://www.w3.org/2000/svg">
<path d="M1.6 0H14.4C14.8243 0 15.2313 0.158035 15.5314 0.43934C15.8314 0.720645 16 1.10218 16 1.5V10.5C16 10.8978 15.8314 11.2794 15.5314 11.5607C15.2313 11.842 14.8243 12 14.4 12H1.6C1.17565 12 0.768687 11.842 0.468629 11.5607C0.168571 11.2794 0 10.8978 0 10.5V1.5C0 1.10218 0.168571 0.720645 0.468629 0.43934C0.768687 0.158035 1.17565 0 1.6 0ZM8 5.25L14.4 1.5H1.6L8 5.25ZM1.6 10.5H14.4V3.2775L8 7.01925L1.6 3.2775V10.5Z" fill="#222222"/>
</svg>
