<svg width="18" height="18" viewBox="0 0 18 18" fill="none" xmlns="http://www.w3.org/2000/svg">
<path d="M16.2 4.01259C16.1998 3.71001 16.0824 3.41927 15.8723 3.20149C15.6623 2.98371 15.376 2.85584 15.0736 2.84475V2.84259H3.03266V2.84583C3.01178 2.84475 2.99108 2.84259 2.97002 2.84259C2.72805 2.84275 2.49208 2.91792 2.29461 3.05776C2.09714 3.1976 1.94789 3.39522 1.8674 3.62342C1.78692 3.85161 1.77916 4.09914 1.8452 4.33192C1.91124 4.5647 2.04783 4.77128 2.23616 4.92321L7.66136 10.3482L7.66118 13.6961V13.7238H7.66388C7.66842 13.827 7.6991 13.9274 7.75302 14.0156C7.80695 14.1037 7.88237 14.1767 7.97222 14.2278L7.9706 14.2307L9.38756 15.0487C9.39944 15.057 9.41258 15.063 9.425 15.0704L9.43004 15.0732V15.0731C9.5204 15.1253 9.62408 15.1575 9.73604 15.1575C9.81679 15.1575 9.89676 15.1416 9.97137 15.1107C10.046 15.0798 10.1138 15.0345 10.1709 14.9774C10.228 14.9203 10.2733 14.8525 10.3042 14.7779C10.3351 14.7033 10.3509 14.6233 10.3509 14.5426C10.3509 14.5264 10.3473 14.5111 10.3462 14.4953H10.3509V10.3533L15.826 4.87839L15.8206 4.87299C15.9401 4.76382 16.0356 4.63092 16.101 4.48278C16.1663 4.33463 16.2 4.1745 16.2 4.01259ZM5.80484 5.18259H5.80736L5.80754 5.18529L5.80484 5.18259Z" fill="#555555"/>
</svg>
