<svg width="18" height="18" viewBox="0 0 18 18" fill="none" xmlns="http://www.w3.org/2000/svg">
<path d="M16.2 4.01253C16.1998 3.70995 16.0824 3.41921 15.8723 3.20143C15.6623 2.98365 15.376 2.85578 15.0736 2.84469V2.84253H3.03266V2.84577C3.01178 2.84469 2.99108 2.84253 2.97002 2.84253C2.72805 2.84269 2.49208 2.91786 2.29461 3.0577C2.09714 3.19754 1.94789 3.39516 1.8674 3.62335C1.78692 3.85154 1.77916 4.09908 1.8452 4.33186C1.91124 4.56464 2.04783 4.77122 2.23616 4.92315L7.66136 10.3482L7.66118 13.696V13.7237H7.66388C7.66842 13.8269 7.6991 13.9273 7.75302 14.0155C7.80695 14.1036 7.88237 14.1767 7.97222 14.2277L7.9706 14.2306L9.38756 15.0487C9.39944 15.057 9.41258 15.0629 9.425 15.0703L9.43004 15.0732V15.073C9.5204 15.1252 9.62408 15.1574 9.73604 15.1574C9.81679 15.1574 9.89676 15.1415 9.97137 15.1107C10.046 15.0798 10.1138 15.0345 10.1709 14.9774C10.228 14.9203 10.2733 14.8525 10.3042 14.7779C10.3351 14.7033 10.3509 14.6233 10.3509 14.5425C10.3509 14.5263 10.3473 14.511 10.3462 14.4952H10.3509V10.3532L15.826 4.87833L15.8206 4.87293C15.9401 4.76376 16.0356 4.63086 16.101 4.48272C16.1663 4.33457 16.2 4.17444 16.2 4.01253ZM5.80484 5.18253H5.80736L5.80754 5.18523L5.80484 5.18253Z" fill="#E22F22"/>
</svg>
