<svg width="40" height="40" viewBox="0 0 40 40" fill="none" xmlns="http://www.w3.org/2000/svg">
<path d="M28.5824 26.8814L24.0485 22.3475C25.14 20.8943 25.7293 19.1256 25.7273 17.3081C25.7273 12.6658 21.9504 8.88892 17.3081 8.88892C12.6658 8.88892 8.88889 12.6658 8.88889 17.3081C8.88889 21.9504 12.6658 25.7273 17.3081 25.7273C19.1255 25.7293 20.8943 25.14 22.3475 24.0485L26.8814 28.5824C27.1109 28.7875 27.4102 28.8971 27.7179 28.8884C28.0256 28.8798 28.3184 28.7537 28.536 28.5361C28.7537 28.3184 28.8798 28.0257 28.8884 27.7179C28.897 27.4102 28.7875 27.1109 28.5824 26.8814ZM11.2944 17.3081C11.2944 16.1187 11.6471 14.956 12.3079 13.9671C12.9687 12.9781 13.9079 12.2073 15.0067 11.7522C16.1056 11.297 17.3148 11.1779 18.4813 11.41C19.6478 11.642 20.7194 12.2147 21.5604 13.0558C22.4015 13.8968 22.9742 14.9684 23.2062 16.1349C23.4383 17.3014 23.3192 18.5106 22.864 19.6095C22.4089 20.7083 21.6381 21.6475 20.6491 22.3083C19.6602 22.9691 18.4975 23.3218 17.3081 23.3218C15.7137 23.3199 14.1852 22.6857 13.0579 21.5583C11.9305 20.431 11.2963 18.9025 11.2944 17.3081Z" fill="#555555"/>
</svg>
