<svg width="110" height="35" viewBox="0 0 110 35" fill="none" xmlns="http://www.w3.org/2000/svg">
<path fill-rule="evenodd" clip-rule="evenodd" d="M83.2461 11.2485V12.0612C83.2461 13.3073 84.6069 14.9894 85.4881 14.9894H86.2885C88.0816 14.9894 92.5936 12.6644 94.4089 12.0103C95.873 11.4807 96.9522 10.937 98.2823 10.4102C99.2723 10.0194 101.355 9.03112 102.309 8.8074C102.139 9.54936 101.185 11.7214 100.82 12.6644C100.304 13.9954 99.7882 15.2075 99.2612 16.4507C98.9628 17.1558 96.3805 24.0401 96.3805 24.2638V25.5665C96.3805 26.8607 97.9366 28.169 99.2639 28.169C102.237 28.169 102.479 25.8412 103.288 23.6323C104.027 21.6217 104.766 19.4383 105.575 17.3314C106.163 15.8022 109.997 5.40631 109.997 4.57657C109.997 2.8831 108.36 0.99707 106.793 0.99707H106.473C105.268 0.99707 95.8284 4.72666 94.1329 5.38649C92.139 6.16526 90.1926 7.01199 88.1095 7.73129C86.4474 8.30899 83.2461 9.23502 83.2461 11.2485Z" fill="#E22F22"/>
<path fill-rule="evenodd" clip-rule="evenodd" d="M41.3359 28.1666V30.4434C41.3359 32.5447 43.5166 34.9999 45.5021 34.9999H46.1435C49.2473 34.9999 50.9511 32.5333 50.9511 29.305V28.328C50.9511 26.1559 48.8318 23.7715 46.4642 23.7715H45.5021C43.38 23.7743 41.3359 26.071 41.3359 28.1666ZM43.419 29.305C43.419 27.7588 44.225 25.5641 45.6611 25.5641H46.4614C47.6828 25.5641 48.0593 26.6204 48.5445 27.3538L48.7453 29.3022L48.7035 29.9563C48.7035 31.5308 47.7079 33.2102 46.2997 33.2102H46.1407C44.2975 33.2102 43.4163 31.4799 43.4163 29.6307V29.305H43.419Z" fill="#555555"/>
<path fill-rule="evenodd" clip-rule="evenodd" d="M24.6739 32.2331L22.2702 23.9357H19.3867V34.8356H21.1491L21.2802 26.6657L23.394 34.8356L25.5635 34.8158L27.8809 26.8639V34.8356H29.8022V23.7715H27.2395C26.5869 23.7715 26.0236 27.1669 25.8201 27.8607C25.5356 28.8179 24.6739 31.3326 24.6739 32.2331Z" fill="#555555"/>
<path fill-rule="evenodd" clip-rule="evenodd" d="M72.5767 34.8384H74.6598V30.6076H75.7808C76.6285 30.6076 77.6659 34.8384 78.6642 34.8384L80.6665 34.7959L78.3435 30.1205C79.3363 29.8514 80.1059 28.7923 80.1059 27.518V26.7052C80.1059 25.1024 78.3156 23.9385 76.5811 23.9385H72.5767V34.8384ZM74.6598 28.8178V25.7254H76.1015C77.3452 25.7254 78.0228 26.2266 78.0228 27.5151C78.0228 27.9966 77.599 28.3251 77.3815 28.6536L75.6246 28.8518L74.6598 28.8178Z" fill="#555555"/>
<path fill-rule="evenodd" clip-rule="evenodd" d="M31.5615 34.8383H33.6446V29.9561H37.8108V34.8383H39.8939V23.9355H37.8108V28.1664H33.6446V23.9355H31.5615V34.8383Z" fill="#555555"/>
<path fill-rule="evenodd" clip-rule="evenodd" d="M0 34.8387H2.0831L2.11935 29.1183L5.92861 34.8387H8.6531C8.285 33.8079 4.48689 29.6195 4.48689 28.8181C4.48689 28.8181 7.98662 24.4598 8.33241 23.9359L6.01506 23.8765L2.0831 28.8153V23.9331H0V34.8387Z" fill="#555555"/>
<path fill-rule="evenodd" clip-rule="evenodd" d="M9.13281 30.1176C9.13281 33.1421 10.2092 34.9998 13.1373 34.9998C15.7753 34.9998 17.6242 33.9095 17.6242 31.2589V23.9385H15.5411V30.7718C15.5411 32.352 14.8244 33.2129 13.299 33.2129H13.1401C11.9995 33.2129 11.2187 32.1566 11.2187 30.9361V23.9413H9.1356V30.1176H9.13281Z" fill="#555555"/>
<path fill-rule="evenodd" clip-rule="evenodd" d="M81.7095 34.8383H88.5974V32.8843H83.7926V30.1175H88.1177V28.1664H83.7926V25.7253H88.4384V23.9355H81.7095V34.8383Z" fill="#555555"/>
<path fill-rule="evenodd" clip-rule="evenodd" d="M66.1684 30.7689V34.8355H68.0897V30.9303C68.0897 30.3667 71.146 24.8361 71.6145 23.9355H69.2107C69.0323 24.7115 67.585 27.835 67.0328 27.9681L65.0473 23.9355H62.6436C62.9921 24.6039 66.1684 30.6641 66.1684 30.7689Z" fill="#555555"/>
<path fill-rule="evenodd" clip-rule="evenodd" d="M54.311 25.7253H57.1973V34.674H59.1186V25.7253H62.0021V23.9355H54.311V25.7253Z" fill="#555555"/>
</svg>
