<svg width="210" height="44" viewBox="0 0 210 44" fill="none" xmlns="http://www.w3.org/2000/svg">
<g clip-path="url(#clip0)">
<path fill-rule="evenodd" clip-rule="evenodd" d="M209.208 5.58799V38.4294C209.208 40.771 207.439 42.6968 205.175 42.8999H41.3256V1.10034H204.775C207.225 1.10034 209.208 3.10967 209.208 5.58799Z" fill="#E12E22"/>
<path fill-rule="evenodd" clip-rule="evenodd" d="M41.3256 1.10095V42.9005H4.04105C1.77659 42.6974 0 40.7754 0 38.43V5.5886C0 3.11028 1.98622 1.10095 4.43729 1.10095H41.3256Z" fill="#C3C9CB"/>
<path fill-rule="evenodd" clip-rule="evenodd" d="M209.208 5.58804V38.4295C209.208 40.7711 207.439 42.6968 205.175 42.9H41.3256V1.09998H204.775C207.225 1.09998 209.208 3.10972 209.208 5.58804Z" fill="url(#paint0_linear)"/>
<path fill-rule="evenodd" clip-rule="evenodd" d="M41.3256 1.09998V42.9H4.04105C1.77659 42.6968 0 40.774 0 38.4295V5.58804C0 3.10972 1.98622 1.09998 4.43729 1.09998H41.3256Z" fill="url(#paint1_linear)"/>
<path fill-rule="evenodd" clip-rule="evenodd" d="M195.65 13.5095C190.301 13.5095 185.964 17.8964 185.964 23.3066C185.964 28.7159 190.301 33.1028 195.65 33.1028C200.999 33.1028 205.335 28.7164 205.335 23.3066C205.335 17.8964 200.999 13.5099 195.65 13.5095ZM195.65 28.3753C192.883 28.3753 190.639 26.1047 190.639 23.3062C190.639 20.5064 192.882 18.2367 195.65 18.2367C198.416 18.2367 200.661 20.5064 200.661 23.3062C200.661 26.1047 198.416 28.3753 195.65 28.3753Z" fill="#130C0E"/>
<path fill-rule="evenodd" clip-rule="evenodd" d="M138.001 14.1621H152.388V32.45H147.216V18.6464H143.173V25.6178C143.173 26.0091 143.16 26.4367 143.133 26.8986C143.107 27.3605 143.042 27.8324 142.934 28.3135C142.706 29.4158 142.14 30.4165 141.234 31.3156C140.327 32.2143 138.739 32.6628 136.471 32.6628C136.19 32.6628 135.939 32.6586 135.719 32.6498C135.5 32.6402 135.284 32.6206 135.072 32.5829C134.949 32.5658 134.826 32.5437 134.702 32.5169C134.579 32.4902 134.448 32.4688 134.308 32.4509V27.9653C134.5 28.0192 134.695 28.0639 134.888 28.0999C135.082 28.135 135.266 28.1521 135.441 28.1521C136.672 28.1521 137.407 27.7563 137.645 26.965C137.882 26.1725 138.002 25.2082 138.002 24.0691V14.1621H138.001Z" fill="#130C0E"/>
<path fill-rule="evenodd" clip-rule="evenodd" d="M155.616 32.45V14.1621H167.238V18.6464H160.787V21.0641H166.685V25.1735H160.787V28.163H167.238V32.45H155.616Z" fill="#130C0E"/>
<path fill-rule="evenodd" clip-rule="evenodd" d="M184.027 31.7503C183.663 31.9994 183.299 32.2009 182.936 32.3601C182.573 32.5194 182.209 32.6523 181.846 32.7576C181.377 32.8989 180.914 32.9921 180.457 33.036C179.996 33.0807 179.552 33.1021 179.118 33.1021C176.557 33.1021 174.368 32.2456 172.549 30.5305C170.731 28.8159 169.822 26.4124 169.822 23.3192C169.822 20.0843 170.774 17.6411 172.678 15.9879C174.583 14.3355 176.704 13.5092 179.041 13.5092C179.353 13.5092 179.672 13.5267 180.001 13.5614C180.33 13.5974 180.668 13.6504 181.014 13.7215C181.533 13.8273 182.049 13.9865 182.56 14.1984C183.071 14.4108 183.561 14.6762 184.027 14.9939V20.3756C183.923 20.2523 183.806 20.1198 183.677 19.979C183.547 19.8368 183.396 19.6951 183.222 19.5539C182.823 19.2002 182.334 18.8779 181.754 18.5862C181.174 18.2944 180.494 18.1498 179.716 18.1498C178.243 18.1498 177.102 18.6744 176.289 19.7265C175.474 20.7782 175.067 22.0292 175.067 23.4785C175.067 25.0869 175.526 26.3238 176.444 27.1899C177.361 28.056 178.452 28.4886 179.716 28.4886C180.65 28.4886 181.483 28.2771 182.209 27.8528C182.936 27.4281 183.542 26.9696 184.027 26.4747V31.7503H184.027Z" fill="#130C0E"/>
<path fill-rule="evenodd" clip-rule="evenodd" d="M113.619 14.1621H113.644L113.619 14.1935V14.1621Z" fill="#130C0E"/>
<path fill-rule="evenodd" clip-rule="evenodd" d="M113.619 32.4141L113.645 32.45H113.619V32.4141Z" fill="#130C0E"/>
<path fill-rule="evenodd" clip-rule="evenodd" d="M123.28 13.5095C118.17 13.5095 113.982 17.5144 113.619 22.5897V24.0218C113.982 29.0976 118.17 33.1028 123.28 33.1028C128.627 33.1028 132.966 28.7164 132.966 23.3066C132.966 17.8964 128.627 13.5099 123.28 13.5095ZM123.28 28.3753C120.512 28.3753 118.268 26.1047 118.268 23.3062C118.268 20.5064 120.512 18.2367 123.28 18.2367C126.047 18.2367 128.292 20.5064 128.292 23.3062C128.291 26.1047 126.047 28.3753 123.28 28.3753Z" fill="#130C0E"/>
<path fill-rule="evenodd" clip-rule="evenodd" d="M96.8564 32.45V14.1621H102.022V21.6268L107.583 14.1621H113.619V14.1935L106.634 22.8264L113.619 32.4141V32.45H107.187L102.022 24.4257V32.45H96.8564Z" fill="#130C0E"/>
<path fill-rule="evenodd" clip-rule="evenodd" d="M113.619 22.5894C113.601 22.8259 113.595 23.0646 113.595 23.3062C113.595 23.5462 113.601 23.7853 113.619 24.0214V22.5894Z" fill="#130C0E"/>
<path fill-rule="evenodd" clip-rule="evenodd" d="M194.358 12.2029C189.009 12.2029 184.673 16.591 184.673 21.9995C184.673 27.4097 189.009 31.7962 194.358 31.7962C199.707 31.7962 204.043 27.4097 204.043 21.9995C204.043 16.591 199.707 12.2029 194.358 12.2029ZM194.358 27.069C191.591 27.069 189.346 24.7993 189.346 21.9995C189.346 19.201 191.591 16.9313 194.358 16.9313C197.125 16.9313 199.37 19.201 199.37 21.9995C199.37 24.7993 197.125 27.069 194.358 27.069Z" fill="white"/>
<path fill-rule="evenodd" clip-rule="evenodd" d="M136.709 12.8567H151.096V31.1429H145.925V17.3397H141.882V24.3111C141.882 24.7024 141.868 25.1292 141.842 25.5919C141.815 26.0546 141.748 26.5257 141.643 27.0068C141.415 28.1099 140.849 29.1106 139.942 30.0089C139.035 30.9076 137.449 31.357 135.179 31.357C134.898 31.357 134.647 31.3519 134.428 31.344C134.208 31.3344 133.992 31.3122 133.781 31.2771C133.658 31.2591 133.535 31.2362 133.413 31.2102C133.289 31.1839 133.156 31.1605 133.017 31.1434V26.6599C133.21 26.7121 133.403 26.7577 133.596 26.7928C133.79 26.8288 133.975 26.8467 134.151 26.8467C135.381 26.8467 136.115 26.4509 136.354 25.6588C136.592 24.8667 136.71 23.9019 136.71 22.7637V12.8567H136.709Z" fill="white"/>
<path fill-rule="evenodd" clip-rule="evenodd" d="M154.324 31.1429V12.8567H165.947V17.3397H159.495V19.7583H165.394V23.8681H159.495V26.8568H165.947V31.1429H154.324Z" fill="white"/>
<path fill-rule="evenodd" clip-rule="evenodd" d="M182.736 30.444C182.372 30.6923 182.008 30.8946 181.645 31.0538C181.281 31.2131 180.916 31.3452 180.554 31.4522C180.087 31.5935 179.623 31.6867 179.165 31.7298C178.707 31.7745 178.261 31.7958 177.829 31.7958C175.266 31.7958 173.075 30.9393 171.257 29.2243C169.439 27.5105 168.53 25.1061 168.53 22.0133C168.53 18.778 169.482 16.3352 171.388 14.6816C173.291 13.0293 175.412 12.2029 177.75 12.2029C178.059 12.2029 178.382 12.2204 178.711 12.2555C179.039 12.2911 179.376 12.3437 179.723 12.4148C180.243 12.5214 180.759 12.6798 181.268 12.8917C181.78 13.1041 182.269 13.3691 182.736 13.6872V19.0698C182.633 18.9456 182.515 18.8127 182.385 18.6714C182.255 18.5301 182.104 18.3893 181.931 18.248C181.533 17.8944 181.042 17.5717 180.463 17.2803C179.883 16.9881 179.205 16.8423 178.425 16.8423C176.953 16.8423 175.81 17.3689 174.996 18.4198C174.184 19.4723 173.775 20.7226 173.775 22.1718C173.775 23.7802 174.234 25.0179 175.151 25.884C176.07 26.7501 177.162 27.1827 178.425 27.1827C179.359 27.1827 180.19 26.9704 180.916 26.547C181.645 26.1214 182.251 25.6629 182.736 25.1672V30.444H182.736Z" fill="white"/>
<path fill-rule="evenodd" clip-rule="evenodd" d="M112.328 12.8567H112.352L112.328 12.8872V12.8567Z" fill="#C3C9CB"/>
<path fill-rule="evenodd" clip-rule="evenodd" d="M112.328 31.1078L112.353 31.1429H112.328V31.1078Z" fill="#C3C9CB"/>
<path fill-rule="evenodd" clip-rule="evenodd" d="M121.989 12.2029C116.878 12.2029 112.692 16.2077 112.328 21.2823V22.7185C112.692 27.7926 116.878 31.7962 121.989 31.7962C127.335 31.7962 131.673 27.4097 131.673 21.9995C131.672 16.591 127.335 12.2029 121.989 12.2029ZM121.989 27.069C119.22 27.069 116.976 24.7993 116.976 21.9995C116.976 19.201 119.22 16.9313 121.989 16.9313C124.755 16.9313 127 19.201 127 21.9995C127 24.7993 124.755 27.069 121.989 27.069Z" fill="white"/>
<path fill-rule="evenodd" clip-rule="evenodd" d="M95.5647 31.1429V12.8567H100.73V20.3213L106.291 12.8567H112.328V12.8872L105.342 21.5197L112.328 31.1078V31.1429H105.897L100.73 23.1194V31.1429H95.5647Z" fill="white"/>
<path fill-rule="evenodd" clip-rule="evenodd" d="M112.328 21.2822C112.311 21.5188 112.301 21.7583 112.301 21.9995C112.301 22.2415 112.31 22.4811 112.328 22.7185V21.2822Z" fill="#C3C9CB"/>
<path fill-rule="evenodd" clip-rule="evenodd" d="M32.646 26.6218L31.4071 17.9537L29.9024 11.6812L33.7209 11.9086L34.3192 10.849L35.5176 12.2117L36.1925 13.1212L36.6406 14.4839L36.8649 15.544L37.8389 16.3014L37.9134 17.4375L38.1373 18.9519L38.5879 21.9803L38.5134 23.193L38.3155 24.6476L37.6891 26.2974L37.1649 28.5689L36.3406 30.1593L35.1435 31.5216L34.1707 32.5821L32.1481 33.3399L30.4267 33.416L29.6041 33.9448L28.3313 33.7939L32.646 26.6218Z" fill="white"/>
<path fill-rule="evenodd" clip-rule="evenodd" d="M13.8446 22.902C13.409 22.9969 12.8207 23.152 12.2195 23.0776C11.6178 23.0024 11.6077 23.6875 11.2337 23.6875C10.8604 23.6875 10.7399 24.1005 10.6044 24.2526C10.4676 24.4052 10.3102 24.4361 10.3031 24.7107C10.2943 24.9849 10.1165 24.9068 9.93868 25.0782C9.76127 25.2479 9.91399 25.803 9.50478 25.9208C9.09557 26.0375 8.77632 26.0809 8.44912 26.1265C8.12276 26.1712 7.92485 26.4341 7.86083 26.6465C7.79681 26.8588 7.61773 26.8605 7.54325 27.026C7.46752 27.1916 7.52442 27.5452 7.4399 27.7943C7.35706 28.0434 7.13446 28.0949 6.9332 28.2466C6.73236 28.4 6.3742 28.6261 6.30558 28.7812C6.23863 28.9371 6.26792 29.111 6.26457 29.2924C6.26164 29.4722 6.22524 29.7146 6.14114 29.952C6.05662 30.1895 5.89762 30.3245 5.39092 30.2622C4.88422 30.1995 4.4633 30.5765 4.50723 31.1438C4.55075 31.7118 4.74615 32.0036 5.13611 32.1879C5.52649 32.3739 5.41979 32.7234 5.20724 32.7489C4.99301 32.7756 5.13736 32.784 4.62188 32.7539C4.10639 32.7255 4.17041 32.9562 4.03777 32.9466C3.90388 32.937 3.80471 32.8158 3.71559 32.5712C3.62688 32.3263 3.13441 32.297 2.94236 32.4203C2.7503 32.5445 3.2047 32.6995 3.06453 32.934C2.92478 33.1669 2.35532 33.0076 2.2549 33.156C2.15616 33.3052 2.24026 33.4816 2.45741 33.5824C2.6729 33.6827 2.99173 33.8215 3.16788 33.6785C3.34571 33.5372 3.6499 33.6008 3.82019 33.477C3.99216 33.3529 4.22354 33.3186 4.21936 33.6003C4.2135 33.8837 3.8817 33.9481 3.70973 34.0363C3.53818 34.1237 3.34278 34.0618 3.15952 34.1057C2.97709 34.1492 2.71097 34.2863 2.83608 34.5333C2.96286 34.7808 3.27165 34.7122 3.50303 34.6387C3.73609 34.5659 3.95032 34.3348 4.19467 34.1408C4.43945 33.9448 4.51811 34.1162 4.611 34.1613C4.70598 34.2069 4.87209 34.0305 5.08422 33.9899C5.29552 33.9473 5.77168 33.6258 5.91896 33.9335C6.06583 34.2445 6.17838 34.3866 6.43445 34.5546C6.69219 34.7227 7.0491 34.8355 7.29346 34.9802C7.53697 35.124 7.72777 34.9484 7.95455 34.9384C8.1805 34.93 8.32485 35.0307 8.55205 35.0207C8.77925 35.0103 8.91021 35.0249 9.09683 34.9969C9.28176 34.9705 9.6211 34.9634 9.82361 34.8949C10.0261 34.8247 9.93115 34.6997 10.247 34.6412C10.5634 34.5814 10.8876 34.527 11.1517 34.5659C11.4165 34.6035 11.6935 34.6917 11.9132 34.7536C12.1345 34.8171 12.3617 34.8974 12.5772 34.9078C12.7944 34.9183 13.1889 34.9233 13.3504 34.7615C13.5136 34.5989 13.4902 34.5893 13.6488 34.4765C13.809 34.3632 13.7387 34.1107 13.9136 34.0618C14.0885 34.0137 14.3592 34.0543 14.6099 34.0342C14.8605 34.0137 15.23 33.732 15.2873 34.293C15.3454 34.8539 15.7911 35.0082 16.1258 35.075C16.4593 35.1436 16.5291 35.414 16.2526 35.5649C15.976 35.7158 15.612 35.623 15.3132 36.0402C15.0132 36.4557 15.409 36.8223 15.7153 36.5514C16.0224 36.2806 16.2003 36.3938 16.2978 36.6797C16.3936 36.9677 16.6459 36.9351 16.7781 36.9326C16.9107 36.9301 16.8409 37.0722 17.0446 37.1065C17.2484 37.14 17.7919 37.1521 17.984 37.1049C18.176 37.0593 18.0685 36.9669 18.0174 36.8712C17.9651 36.7763 17.8149 36.6726 17.7057 36.6442C17.5948 36.615 17.5513 36.7324 17.4158 36.7128C17.2802 36.6948 17.0429 36.6735 16.9789 36.5284C16.9149 36.3813 17.0413 36.245 17.1915 36.2053C17.3417 36.1652 17.5091 36.3466 17.6823 36.3972C17.8555 36.4486 18.1103 36.4716 18.2338 36.51C18.3559 36.5477 18.3036 36.5385 18.4392 36.617C18.5748 36.6956 18.9053 36.6889 18.9605 36.4553C19.0141 36.2216 18.5137 36.3763 18.5718 36.1514C18.6304 35.9278 18.8631 35.8517 19.1154 35.8354C19.3672 35.8191 19.8681 35.9064 20.056 35.8475C20.2434 35.7877 20.1229 35.5144 19.9903 35.432C19.8576 35.3488 19.6375 35.4621 19.3932 35.4747C19.1472 35.4868 18.8062 35.5896 18.5936 35.6193C18.3823 35.6485 18.3312 35.7898 18.1827 35.6477C18.0346 35.5064 17.6137 35.6005 17.6208 35.3254C17.6296 35.0512 18.1492 34.8284 18.2091 34.4886C18.2689 34.1488 18.34 34.1228 18.3183 33.9577C18.2965 33.7922 18.4656 33.6509 18.2543 33.5577C18.043 33.4645 17.7342 33.7592 17.612 33.6237C17.4881 33.4866 17.4664 33.3729 17.5103 33.2484C17.5538 33.1242 17.676 33.0256 17.8978 32.988C18.1191 32.9512 18.4246 33.0369 19.0221 32.9391C19.6191 32.8433 20.6066 32.4166 21.1016 32.0353C21.5953 31.655 21.6882 31.887 22.0263 31.9789C22.3656 32.0705 22.9409 32.348 23.2828 32.0036C23.625 31.6583 23.7242 31.6976 23.8669 31.7081C24.0079 31.7185 24.0142 31.9179 23.9589 32.0516C23.902 32.1854 23.5715 32.1946 23.4522 32.2941C23.3326 32.3927 23.1903 32.437 23.2514 32.6385C23.3125 32.8387 23.356 33.1522 22.9932 33.1602C22.6321 33.166 22.5815 33.1251 22.4313 33.0615C22.2828 32.9988 22.2451 33.0143 22.156 32.7882C22.0685 32.5629 21.7409 32.4705 21.7104 32.6812C21.6782 32.891 21.4744 32.9474 21.3635 32.9637C21.2514 32.9809 21.0405 32.8851 20.9643 33.0047C20.889 33.1247 20.9819 33.3826 20.9618 33.6375C20.9413 33.8904 21.2371 33.7345 21.3187 33.765C21.4003 33.7943 21.5489 33.8771 21.6434 33.8704C21.7367 33.8628 21.7351 33.7918 21.8183 33.7617C21.9012 33.7324 21.9041 33.6555 22.0045 33.6367C22.1066 33.6171 22.2476 33.5778 22.3439 33.6434C22.4384 33.7078 22.4049 33.8106 22.3598 33.8934C22.315 33.9749 22.2464 34.0254 22.1108 34.0484C21.974 34.0714 21.684 33.9285 21.62 34.1065C21.5576 34.2838 21.7572 34.4113 21.9551 34.456C22.1535 34.5007 22.5087 34.3507 22.6526 34.2382C22.797 34.1241 22.7459 33.9335 23.0342 33.8603C23.3225 33.7876 23.7799 33.8286 24.2154 33.8365C24.651 33.8445 25.587 34.0539 25.8811 33.8854C26.1753 33.7157 26.0067 33.268 25.887 33.0168C25.769 32.7652 25.392 32.9792 25.1778 32.7882C24.9635 32.5963 25.0732 32.3129 25.338 32.2372C25.6033 32.1603 25.823 32.4513 25.9585 32.5002C26.0924 32.5516 26.1058 32.435 26.187 32.5123C26.2703 32.5884 26.2192 32.7179 26.4213 32.9056C26.6238 33.095 27.2163 33.6175 27.4376 33.607C27.6607 33.5957 27.7523 33.7939 27.9665 33.7721C28.1824 33.7466 28.4703 33.7985 28.6452 33.5565C28.8201 33.3148 29.1548 33.3245 29.3908 33.1221C29.6255 32.9207 30.3373 33.1058 30.2004 32.5988C30.0636 32.0926 30.2414 31.9563 30.2661 31.7352C30.2908 31.5141 30.2996 31.3105 30.508 31.2382C30.7134 31.1663 30.572 30.9314 30.7163 30.7901C30.859 30.6488 30.9942 30.5427 31.2289 30.4006C31.462 30.2576 31.5712 30.1309 31.6921 30.4432C31.813 30.7558 31.7879 31.5492 32.0707 31.7749C32.3532 32.0019 32.8046 31.94 32.8992 31.889C32.9938 31.8368 33.0494 31.5739 33.036 31.3895C33.0214 31.2052 32.9632 30.7007 32.9314 30.4319C32.8992 30.1648 32.841 30.0043 32.7553 29.8162C32.6708 29.6285 32.3636 29.3886 32.2963 29.1574C32.231 28.9254 32.2452 28.7127 32.2323 28.3565C32.218 27.9983 32.3126 27.47 32.6448 27.8219C32.9754 28.173 33.29 29.7903 33.8461 30.1911C34.4009 30.5912 35.062 30.3006 35.1494 29.7192C35.2365 29.1369 34.3005 28.0146 34.0427 27.3655C33.7862 26.718 33.6218 26.9182 33.4486 26.5817C33.2766 26.2444 33.1804 25.8895 33.0858 25.5814C32.9908 25.2738 33.0084 25.2892 33.0406 24.8963C33.0729 24.5042 33.4603 24.4014 33.4833 24.8303C33.508 25.2587 33.7821 25.2654 33.8637 25.4263C33.9436 25.5856 33.8678 25.6379 33.9699 25.7708C34.0704 25.9045 34.2992 26.0174 34.4503 26.2026C34.6005 26.3886 34.5277 26.4931 34.867 26.873C35.2047 27.2518 35.9244 27.0373 36.0084 26.5775C36.0946 26.1169 36.0449 26.0362 35.9256 25.7637C35.8076 25.4903 35.3812 25.5024 35.154 25.0589C34.9285 24.6146 35.0465 24.7521 34.685 24.5837C34.3222 24.4156 33.785 23.4078 33.5431 23.0095C33.3001 22.6103 33.5009 22.7541 33.2331 22.1977C32.9666 21.6418 33.4473 21.266 33.6339 21.73C33.8201 22.1935 33.9599 22.0778 34.1227 22.1802C34.2875 22.2826 34.2411 22.5622 34.4344 22.7277C34.6285 22.892 34.8946 23.0868 35.0256 23.31C35.1582 23.5336 35.1842 23.5575 35.4306 23.7886C35.675 24.0198 36.0277 24.5987 36.1792 23.7201C36.3306 22.8448 36.2026 22.6964 35.8691 22.1697C35.5356 21.643 34.6181 20.8676 34.2687 20.547C33.9206 20.2264 33.9674 20.3293 33.8319 20.2122C33.6938 20.0952 33.5888 19.989 33.4478 19.8456C33.3051 19.701 33.1113 19.5029 32.977 19.349C32.8448 19.1956 32.7339 19.0811 32.6465 18.9285C32.5607 18.7751 32.5168 18.5895 32.4657 18.442C32.4134 18.294 32.4205 18.3701 32.3373 18.042C32.2528 17.7147 32.3113 17.542 32.5615 17.6963C32.8092 17.8522 32.8574 17.7661 33.0306 17.8798C33.2038 17.9951 33.38 18.1929 33.5854 18.3768C33.7892 18.5603 34.0967 18.8445 34.2582 18.9812C34.4197 19.1175 34.3699 18.9908 34.5565 19.1973C34.7427 19.4034 35.0356 19.8644 35.3674 20.2114C35.6997 20.5592 35.9737 20.4793 36.0608 19.9631C36.1499 19.4477 36.1687 19.2726 35.9867 19.0138C35.8034 18.7534 35.4231 18.3584 35.2076 18.095C34.9917 17.8338 34.7532 17.858 34.6093 17.6315C34.4666 17.4049 34.3745 17.1533 33.9582 17.0814C33.539 17.0099 33.6118 16.7913 33.4833 16.6734C33.3536 16.5547 32.885 16.6851 32.5586 16.375C32.231 16.0657 32.3327 16.0882 31.8481 15.8316C31.3632 15.5753 31.459 15.0466 31.8101 14.9935C32.1595 14.9404 32.4306 15.1561 32.6344 15.2844C32.8381 15.4123 32.9243 15.5532 33.1892 15.5018C33.4544 15.4504 33.4268 15.6343 33.6712 15.7756C33.9143 15.9164 34.3001 16.5342 34.5536 16.6333C34.8072 16.7328 35.1624 16.6768 35.1683 16.3194C35.1741 15.9624 35.1373 15.577 35.0063 15.3505C34.8754 15.1252 34.6934 15.1377 34.4281 14.9224C34.1632 14.708 33.757 14.3414 33.3473 14.1015C32.9369 13.8628 32.3762 13.6705 32.0297 13.5443C31.6829 13.4176 31.5841 13.4373 31.3189 13.3365C31.054 13.2345 30.9243 13.2818 30.5737 12.7626C30.2214 12.2439 30.4188 12.1051 30.8398 12.2656C31.2619 12.4253 31.4063 12.432 31.6799 12.4529C31.9536 12.4742 32.0921 12.5532 32.4461 12.771C32.8 12.9888 32.9427 12.8909 33.1059 12.9846C33.2703 13.079 33.2984 13.1877 33.4381 13.2358C33.5791 13.283 34.0247 13.2751 34.1444 13.1167C34.2666 12.9582 34.2436 12.4913 34.2507 12.1461C34.2595 11.8 34.2026 11.4376 34.3511 11.2461C34.4996 11.0547 34.7561 11.1487 34.8712 11.6436C34.9863 12.1385 34.9135 13.742 35.0038 14.3376C35.0942 14.9337 35.272 14.9479 35.4001 15.088C35.5281 15.2292 35.6185 15.3325 35.7277 15.1239C35.8356 14.9166 35.9415 14.2762 35.8704 13.9242C35.7992 13.5723 36.0992 13.0719 36.2331 13.4619C36.3683 13.8519 36.4951 14.5203 36.4239 15.052C36.3507 15.5829 36.1327 15.9917 36.1193 16.2968C36.1064 16.6011 36.0189 16.6132 35.9942 16.77C35.9691 16.9267 35.8151 16.9497 35.908 17.7343C36.0026 18.5181 36.6947 18.4324 36.8386 17.9065C36.9829 17.3807 36.9637 17.3836 37.0265 17.2185C37.0905 17.0513 37.0482 17.091 37.0687 16.7294C37.0888 16.367 37.347 16.3244 37.4562 16.8143C37.565 17.3034 37.5315 17.5199 37.5139 17.9078C37.4955 18.2949 37.3507 18.74 37.2796 19.0932C37.2097 19.4452 37.1428 19.7762 37.0587 20.0183C36.9754 20.2611 36.9039 20.3477 36.7294 20.5215C36.5549 20.6954 36.4817 20.6653 36.4001 21.0879C36.3172 21.5105 36.4947 22.0761 37.0336 21.8993C37.5725 21.7237 37.5461 21.4608 37.67 21.2451C37.7934 21.0294 37.7457 20.7962 37.7968 20.6173C37.8461 20.4379 37.8679 20.4003 37.9775 20.0935C38.0876 19.7854 38.3093 19.7654 38.347 20.1775C38.3851 20.5884 38.4005 20.5224 38.3817 20.6808C38.3616 20.8384 38.2972 20.9145 38.2654 21.1364C38.2332 21.3592 38.1897 21.7659 38.1327 22.0004C38.0775 22.2353 37.9332 22.1187 37.8357 22.4753C37.7382 22.8322 37.2193 23.6427 36.9691 24.0181C36.7189 24.3935 36.7871 24.151 36.4043 24.7241C36.021 25.2955 36.4829 26.0416 36.8352 25.8067C37.1892 25.5714 37.1089 25.502 37.2821 25.4009C37.457 25.3014 37.6344 25.2516 37.7101 25.0309C37.7876 24.8123 37.7465 24.6953 37.8574 24.5899C37.9683 24.4863 38.0118 24.2927 38.1733 24.3391C38.3348 24.3864 38.3876 24.5908 38.3148 24.6468C38.2403 24.704 38.3989 24.7659 38.2637 24.9603C38.1298 25.1546 37.7892 25.7783 37.6507 25.9447C37.511 26.1102 37.2181 26.2256 37.1093 26.5177C36.9984 26.8091 36.8298 26.9813 36.5633 27.0557C36.298 27.1301 36.1005 27.4532 35.9369 27.6075C35.772 27.76 35.5348 27.6401 35.5687 27.9055C35.6022 28.1718 35.4377 28.224 35.4695 28.3979C35.4997 28.571 35.3792 29.1482 35.7126 29.096C36.0461 29.0437 36.5093 28.2951 36.7336 28.046C36.9595 27.7968 37.226 27.9511 37.1369 28.3277C37.0482 28.7056 36.5105 29.2949 36.0884 29.6235C35.6645 29.9508 36.0285 29.9867 36.1089 30.044C36.1888 30.0996 36.2792 30.3086 36.157 30.4708C36.0348 30.633 35.8905 30.7262 35.48 30.7425C35.0708 30.7596 34.1256 30.6526 33.8461 31.0175C33.5653 31.3833 33.4892 31.6617 33.8155 31.6746C34.1415 31.6884 34.2084 31.9237 34.1825 32.1361C34.1549 32.3501 34.0833 32.4931 33.8691 32.4951C33.6565 32.4985 33.5373 32.6201 33.285 32.6623C33.0318 32.7062 32.7925 32.9253 32.5624 32.8764C32.331 32.8275 32.172 32.6264 32.1285 32.4534C32.085 32.2803 32.044 32.1407 31.8318 32.0801C31.6193 32.0203 31.4737 31.6399 31.341 31.5714C31.2084 31.5037 30.9636 31.6663 30.8168 31.7666C30.6699 31.8669 30.664 32.1056 30.7134 32.2678C30.7632 32.4287 30.8168 32.4784 30.9289 32.5574C31.041 32.6373 31.1122 32.7451 31.0875 32.9257C31.064 33.1063 31.0147 33.2701 30.7569 33.3592C30.4992 33.4499 29.9473 33.2956 29.605 33.5151C29.2632 33.7345 29.2088 34.2031 29.6749 34.2399C30.1393 34.2767 30.7046 34.2039 31.0992 34.0915C31.495 33.9795 31.8954 33.857 32.1272 33.8106C32.3586 33.7634 32.631 33.8507 32.8046 33.8123C32.9791 33.7738 33.0448 33.6685 33.2009 33.5878C33.3553 33.5055 33.4076 33.3872 33.7047 33.2873C34.0017 33.1886 34.1239 32.8496 34.4996 32.6218C34.8766 32.3948 35.2804 31.8268 35.5833 31.5818C35.8863 31.336 36.0373 31.3745 36.2532 31.1542C36.4704 30.9331 36.6407 30.7617 36.788 30.5264C36.9352 30.291 36.9248 29.9892 37.1361 29.733C37.3457 29.4776 37.2206 28.8456 37.5001 28.7135C37.7825 28.5797 37.6503 28.5705 37.8311 28.2219C38.0102 27.8767 38.293 27.3124 38.2357 26.9224C38.1775 26.532 38.2708 26.5311 38.5562 26.2929C38.8403 26.0546 38.9261 25.2487 38.7821 24.7538C38.6378 24.2589 38.6587 24.1498 38.6717 23.9291C38.6834 23.708 38.8738 23.774 38.8871 23.4847C38.8972 23.1951 38.8972 23.1892 39.024 22.8586C39.1512 22.5279 39.1441 21.9988 38.9905 21.5561C38.8382 21.1143 38.934 20.7364 38.9294 20.2979C38.9235 19.8594 38.9311 18.5987 38.7708 18.1966C38.5394 17.6185 38.2788 17.4041 38.1532 16.8783C38.0265 16.3532 38.1227 16.0652 37.8809 15.6155C37.639 15.1653 37.4892 15.4395 37.2298 15.1887C36.9721 14.9387 37.3302 14.5023 37.0214 14.0296C36.8771 13.808 36.921 13.3081 36.6629 12.9846C36.3687 12.6188 35.893 12.6029 35.862 12.2451C35.8143 11.6984 35.3892 11.8551 35.3176 11.1792C35.2817 10.8382 34.9172 10.9401 34.6126 10.5288C34.4842 10.3545 34.0984 10.5614 33.8218 10.12C33.6385 9.82784 33.2277 9.68865 33.1285 9.65187C32.8243 9.53483 32.6858 9.66942 32.3201 9.58206C31.9544 9.49512 31.8159 9.21631 31.5892 9.16908C31.3636 9.12184 31.2222 8.96426 31.0109 8.93876C30.8 8.91368 30.6209 9.03072 30.4193 9.1093C30.2201 9.18705 29.7757 9.31412 29.5414 9.43618C29.3071 9.55782 29.131 9.81196 28.9444 9.90685C28.7577 10.0026 28.7423 9.99463 28.4741 10.2132C28.2075 10.4327 28.1724 10.8298 27.9205 11.1224C27.6669 11.4146 27.577 11.2967 27.513 11.5667C27.4489 11.8363 27.5247 12.0048 27.2682 12.4194C27.0104 12.8358 26.8849 13.0331 26.7849 13.2304C26.6841 13.4277 26.7673 13.6513 26.7121 13.8143C26.6569 13.9765 26.5648 14.0919 26.5171 14.2637C26.4678 14.4355 26.5184 14.9208 26.4983 15.2138C26.4782 15.5076 26.2652 15.6535 26.2071 15.8847C26.1472 16.1154 26.182 16.5459 26.156 16.8247C26.1297 17.1031 26.0104 17.1491 26.038 17.5278C26.0657 17.9069 25.8602 17.7703 25.8924 18.1118C25.923 18.4545 26.0498 18.6531 26.0351 18.8491C26.0188 19.0456 26.0962 19.2976 25.9154 19.3587C25.733 19.4189 25.161 19.4816 25.0476 19.5367C24.9326 19.5915 24.2857 19.8899 24.1347 20.0546C23.9832 20.2202 24.0108 20.1621 23.9033 20.2569C23.7953 20.3506 23.5928 20.5165 23.4853 20.6193C23.379 20.7222 23.3849 20.7 23.2727 20.9174C23.1606 21.1343 23.2146 21.3575 23.456 21.0883C23.6966 20.8187 23.6501 20.8894 23.905 20.782C24.1581 20.6749 24.5351 20.4505 24.7681 20.3477C25.0029 20.2444 24.9866 20.2143 25.2958 20.1437C25.6046 20.0739 25.9715 20.0304 25.9552 20.5893C25.9376 21.1485 25.9569 21.0537 25.9611 21.2702C25.9669 21.4863 25.9376 21.6317 25.9698 21.8211C26.0033 22.0096 26.1167 22.2458 26.1154 22.4728C26.1138 22.6989 26.2857 22.7194 26.3644 22.9029C26.4443 23.0872 26.5406 23.2293 26.5929 23.4337C26.6452 23.6386 26.523 23.7807 26.5694 23.9709C26.6192 24.1602 26.8364 24.3914 26.8552 24.6819C26.8753 24.9724 26.9715 25.2174 27.1552 25.362C27.3372 25.5074 27.3606 25.5041 27.4899 25.7398C27.6196 25.9743 27.7113 26.4927 27.9314 26.7752C28.1498 27.0586 28.4456 27.3207 28.6318 27.4896C28.8197 27.6593 28.9653 27.8227 29.1243 27.8298C29.2816 27.8365 29.3368 28.0029 29.5276 28.0313C29.7167 28.0597 30.049 28.0288 30.282 27.9268C30.5168 27.8273 30.8937 27.6493 30.9883 27.388C31.0841 27.1276 31.1481 27.1063 31.3101 27.001C31.472 26.8965 31.6189 26.8726 31.6741 27.0808C31.7281 27.289 31.7105 27.5168 31.5109 27.7354C31.3113 27.9527 31.1004 28.3323 30.8515 28.3916C30.5992 28.4506 30.6155 28.706 30.4347 28.8C30.2557 28.8949 29.9716 28.8832 29.769 28.9003C29.5665 28.9183 29.446 28.9438 29.2724 28.8928C29.1004 28.8397 28.9172 28.8698 28.7962 28.5705C28.6741 28.2725 28.4 28.1672 28.282 28.0384C28.1657 27.9093 28.2063 27.8353 28.0473 27.8604C27.8887 27.8867 27.9527 27.5724 27.8406 27.4507C27.7284 27.3299 27.6669 27.2171 27.5523 27.0754C27.4376 26.9341 27.2351 26.9767 27.1682 26.7267C27.1012 26.4776 26.9586 26.3928 26.8247 26.2812C26.6878 26.1691 26.7096 25.9978 26.4502 26.0274C26.1912 26.0567 26.0221 25.9484 25.9682 25.762C25.9159 25.5768 25.8912 25.3741 25.7991 25.2437C25.7062 25.1128 25.5037 25.043 25.3828 24.9557C25.2619 24.8683 25.1539 24.9181 24.9924 24.8399C24.8292 24.7613 24.5656 24.7371 24.4535 24.3851C24.3414 24.0323 24.1522 24.2162 23.9627 24.1142C23.7736 24.0114 23.52 23.9851 23.3209 23.9019C23.1208 23.8187 22.9974 23.7727 22.8183 23.6774C22.6393 23.5817 22.4497 23.3769 22.2472 23.3272C22.0451 23.2782 21.8756 23.1875 21.6643 23.1771C21.4535 23.1675 21.3426 23.1336 21.0643 23.2678C20.7878 23.4007 20.5112 23.2277 20.3798 22.9902C20.2476 22.7511 19.9965 22.8368 19.7928 22.7871C19.589 22.7365 19.3459 22.6767 19.1434 22.6621C18.9426 22.6475 18.8903 22.7691 18.6626 22.7879C18.4367 22.8076 18.1342 22.9 17.9363 22.8506C17.7379 22.8017 17.8898 22.5543 17.6656 22.5012C17.4413 22.4473 16.6111 22.6107 16.2718 22.5501C15.9325 22.4903 15.8074 22.5656 15.5944 22.7503C15.3806 22.9372 15.117 22.841 14.891 22.8385C14.6651 22.836 14.4542 22.7273 14.2751 22.7382C14.0952 22.7495 14.2797 22.8059 13.8446 22.902Z" fill="#130C0E"/>
<path fill-rule="evenodd" clip-rule="evenodd" d="M23.6639 26.6623C23.5342 26.1193 22.9008 26.2556 22.8748 26.8362C22.8497 27.4185 22.738 27.5589 22.202 27.6116C21.6643 27.6647 20.2957 27.7257 19.6547 27.7717C19.0154 27.8181 18.7651 27.775 18.3124 27.8607C17.8593 27.9456 17.1835 28.0354 16.9756 27.9251C16.766 27.8131 16.5576 27.7855 16.163 27.8256C15.7685 27.8674 15.2777 27.8691 14.973 27.834C14.6689 27.7989 14.609 27.798 14.3718 27.5832C14.1341 27.3675 14.0337 27.6337 14.1153 27.9138C14.1998 28.1947 14.2521 28.3799 13.7601 28.2712C13.2676 28.1625 13.0375 28.1069 12.7232 28.071C12.4086 28.0359 12.5818 27.5811 12.6575 27.444C12.7333 27.3069 12.8408 27.0389 13.0668 27.4473C13.2898 27.8557 13.9057 27.6475 13.799 27.1756C13.6927 26.702 13.5324 26.4508 13.3082 26.3346C13.0856 26.218 13.0375 26.6351 12.7852 26.6891C12.5345 26.7438 12.2638 26.7823 12.2931 27.1936C12.3207 27.6057 12.1299 27.6818 11.868 27.4795C11.6073 27.2764 11.3902 27.5008 11.2169 27.8256C11.0437 28.1496 10.6517 28.109 10.7772 27.6772C10.9006 27.2438 11.514 27.1129 11.4353 26.8421C11.3567 26.5695 10.7274 26.7325 10.5182 26.7668C10.3086 26.8011 10.0521 26.8086 9.88303 26.8705C9.71273 26.9323 9.71273 26.9792 9.52947 27.1309C9.34453 27.2818 8.92067 27.1188 9.3257 26.8981C9.73031 26.6769 10.4688 26.3471 10.891 26.2075C11.3132 26.0679 11.4458 25.9952 11.5709 25.8664C11.6977 25.7381 11.6801 25.7055 11.9249 25.6867C12.1709 25.6679 12.4567 25.6449 13.004 25.7594C13.5513 25.8727 13.8371 25.5692 13.304 25.3653C12.7709 25.1596 12.5977 25.3026 12.4651 25.3368C12.3312 25.372 12.0764 25.313 11.686 25.4363C11.2956 25.5596 11.2755 25.061 11.6513 25.104C12.027 25.1479 11.9366 24.9611 11.8533 24.7993C11.7734 24.6384 11.4764 24.4891 11.2973 24.4411C11.1194 24.3938 10.9902 24.4118 10.8822 24.495C10.773 24.5765 10.7425 24.7245 10.7324 24.8624C10.7207 25.0012 10.6512 25.0706 10.5374 25.2298C10.424 25.3891 10.3554 25.2942 10.255 25.5889C10.1533 25.8827 9.95081 26.2748 9.4847 26.4496C9.02026 26.6234 8.37506 26.8943 8.34452 27.3378C8.31355 27.7805 8.23196 28.1165 7.90183 28.2294C7.57422 28.3423 7.32526 28.5935 7.15036 28.7991C6.97714 29.004 6.9014 29.0278 6.8855 29.4253C6.87086 29.8253 6.82316 30.4778 7.06291 31.1299C7.30183 31.7816 7.38635 31.9701 6.97421 31.8735C6.56081 31.7765 6.40349 31.7765 6.40767 32.1519C6.41353 32.5264 6.51395 32.8328 6.46165 33.1012C6.40767 33.3708 6.3265 33.8833 6.78341 33.7729C7.24241 33.6626 7.16668 33.9125 7.39806 34.2921C7.62986 34.6724 8.51063 34.6415 8.93281 34.351C9.35666 34.0613 9.63324 33.9004 9.99893 33.9263C10.3671 33.9531 10.5232 33.9673 10.8462 34.0112C11.1697 34.0551 11.7387 34.1433 12.0667 34.1654C12.3948 34.1876 12.5241 34.4258 12.8078 34.1433C13.0902 33.8599 13.3057 32.9879 13.5186 32.6794C13.7312 32.3709 13.6002 32.2501 13.763 32.1502C13.9262 32.0516 14.1287 32.1364 14.3981 32.159C14.6659 32.182 14.9705 32.0299 15.0664 31.9768C15.1613 31.9237 15.4772 32.0144 15.6852 31.9383C15.8919 31.8631 15.9793 31.8271 16.1685 31.5872C16.3563 31.3489 16.3898 31.2787 16.7655 31.295C17.1413 31.3138 17.6379 31.0141 18.1605 30.7449C18.6819 30.4761 20.2501 30.3006 21.1777 30.023C22.107 29.7446 23.0125 29.5536 23.3853 29.8182C23.761 30.082 23.6999 29.8278 24.0481 29.6255C24.3962 29.4224 24.9928 29.2171 24.6727 28.9488C24.3539 28.6792 23.3752 29.1055 22.7752 29.1285C22.1765 29.1507 21.753 29.34 21.2811 29.4495C20.8091 29.5599 20.2731 29.7827 19.8216 29.7802C19.3702 29.776 19.1225 29.9645 18.8342 30.0381C18.5476 30.1117 18.1877 30.0636 17.8283 30.3257C17.4685 30.5878 17.1714 30.7909 16.8363 30.7052C16.5011 30.6195 16.3689 30.6417 16.2028 30.6923C16.0367 30.742 15.9931 30.8507 15.7061 30.9422C15.4191 31.0338 15.0145 31.3937 14.4362 31.3857C13.8563 31.379 13.9994 31.1057 13.8115 30.8014C13.6207 30.4966 12.4718 30.5531 12.0056 30.678C11.5383 30.803 11.2107 30.5146 11.1931 30.2421C11.1768 29.9712 11.3341 29.7701 11.6533 29.758C11.9738 29.7451 12.3726 29.8863 12.7383 30.1117C13.104 30.337 13.6952 30.138 14.0709 30.051C14.4454 29.9628 14.7772 30.0381 15.1048 29.9883C15.4312 29.9394 15.4019 29.8249 15.7036 29.7589C16.0065 29.6928 16.3049 29.753 16.5367 29.7125C16.7697 29.6715 16.7898 29.3705 17.2572 29.5068C17.725 29.6439 17.8911 29.3843 18.1007 29.2961C18.3091 29.2063 18.3689 29.1427 18.5145 29.088C18.6601 29.0332 18.8087 28.9174 19.1321 28.9835C19.4551 29.0495 20.0141 29.0512 20.217 28.8397C20.4208 28.6282 20.5271 28.6934 20.7526 28.6085C20.9798 28.5245 21.1765 28.3678 21.5305 28.2566C21.884 28.1454 22.3413 28.1245 22.697 28.0614C23.0539 27.9987 23.3828 27.9845 23.6564 27.9284C23.9288 27.8745 24.1895 27.8394 24.3133 27.8076C24.4355 27.775 24.6376 27.8164 24.664 27.4891C24.6903 27.1635 24.3757 26.552 24.2125 27.0285C24.0501 27.5067 23.7937 27.2053 23.6639 26.6623Z" fill="white"/>
<path fill-rule="evenodd" clip-rule="evenodd" d="M30.7008 10.4043C30.1431 10.4047 30.1326 10.7098 30.5376 10.8478C30.9423 10.9861 31.2862 11.0062 31.5669 11.0856C31.8477 11.165 32.0054 11.1713 32.2197 11.3335C32.4322 11.4957 32.7452 11.5208 32.8414 11.3954C32.9364 11.27 33.2758 11.3615 33.2477 11.1475C33.2214 10.9331 33.341 10.849 33.1766 10.4858C33.0134 10.1234 32.8431 10.1635 32.8314 10.4758C32.8184 10.788 32.8983 11.2056 32.4933 10.9506C32.09 10.6961 31.2586 10.4018 30.7008 10.4043Z" fill="white"/>
<path fill-rule="evenodd" clip-rule="evenodd" d="M29.0786 16.6223C29.2171 16.1822 29.9858 16.4271 30.1414 16.81C30.2975 17.1933 30.436 17.2351 30.4301 17.4738C30.4243 17.7129 30.6046 17.8383 30.6686 18.0578C30.7326 18.2772 30.8406 18.4954 30.8406 18.7767C30.8393 19.0576 31.0243 19.3009 31.0883 19.5174C31.1523 19.7348 31.1757 19.6161 31.1962 20.1139C31.2151 20.6117 31.0602 20.8483 30.6602 20.4186C30.2611 19.9889 29.9163 19.9709 29.6364 19.848C29.3569 19.726 29.1774 19.7339 28.9954 19.6892C28.8134 19.6436 28.6954 19.6232 28.5456 19.5751C28.3958 19.527 28.2309 19.433 28.0958 19.4041C27.9602 19.3749 27.8774 19.4271 27.7477 19.4041C27.6167 19.3807 27.6853 19.298 27.3196 19.267C26.9539 19.2361 26.9397 19.1492 27.2861 19.0727C27.6326 18.9978 27.9238 18.992 28.2192 18.982C28.5134 18.9719 28.797 19.0033 28.8949 18.5255C28.9912 18.0473 28.8146 17.7413 28.8774 17.4324C28.9401 17.1231 28.9401 17.0625 29.0786 16.6223Z" fill="#C3C9CB"/>
<path fill-rule="evenodd" clip-rule="evenodd" d="M28.918 21.1301C29.1481 21.3545 29.3385 21.4712 29.4945 21.6384C29.6489 21.8043 29.7259 21.9205 29.8427 22.1245C29.959 22.3268 30.0933 22.6186 30.192 22.8531C30.2891 23.0876 30.3594 23.3329 30.4305 23.5265C30.5017 23.7192 30.559 23.7321 30.6155 24.0122C30.6724 24.2931 30.5573 24.719 30.3653 24.8072C30.174 24.8963 30.1832 24.7688 30.0711 24.7295C29.9602 24.691 29.8481 24.7713 29.7012 24.5736C29.5539 24.3792 29.4347 23.8738 29.3092 23.6038C29.1841 23.3329 29.028 23.1653 28.9498 22.9521C28.8711 22.7381 28.8025 22.5446 28.7648 22.3331C28.7272 22.1216 28.7518 21.8716 28.7213 21.6923C28.6908 21.5151 28.6267 21.6593 28.5803 21.2735C28.5339 20.8868 28.6878 20.9048 28.918 21.1301Z" fill="#C3C9CB"/>
<path fill-rule="evenodd" clip-rule="evenodd" d="M45.2001 14.1621H94.2731V16.775H45.2001V14.1621Z" fill="#130C0E"/>
<path d="M94.2726 29.8367H45.2001V32.45H94.2726V29.8367Z" fill="#130C0E"/>
<path fill-rule="evenodd" clip-rule="evenodd" d="M43.9084 12.8567H92.9827V15.4692H43.9084V12.8567Z" fill="white"/>
<path d="M92.9827 28.5312H43.9084V31.1429H92.9827V28.5312Z" fill="white"/>
</g>
<defs>
<linearGradient id="paint0_linear" x1="125.267" y1="1.09977" x2="125.267" y2="42.9002" gradientUnits="userSpaceOnUse">
<stop stop-color="#841618" stop-opacity="0.4"/>
<stop offset="0.4105" stop-color="#BC2226" stop-opacity="0"/>
<stop offset="0.5562" stop-color="#B92226" stop-opacity="0.4464"/>
<stop offset="0.6844" stop-color="#AE2327" stop-opacity="0.8392"/>
<stop offset="0.7368" stop-color="#A72328"/>
<stop offset="0.7667" stop-color="#A22126"/>
<stop offset="0.8368" stop-color="#991F22"/>
<stop offset="0.8686" stop-color="#A11F22"/>
<stop offset="0.9183" stop-color="#B81F23"/>
<stop offset="0.9796" stop-color="#DC1E25"/>
<stop offset="0.9947" stop-color="#E61E25"/>
</linearGradient>
<linearGradient id="paint1_linear" x1="20.6627" y1="1.09977" x2="20.6627" y2="42.9002" gradientUnits="userSpaceOnUse">
<stop stop-color="#848687"/>
<stop offset="0.103" stop-color="#9DA1A3"/>
<stop offset="0.211" stop-color="#B2B7B9"/>
<stop offset="0.343" stop-color="#C0C6C8"/>
<stop offset="0.445" stop-color="#C2C8CA"/>
<stop offset="0.57" stop-color="#AEB3B5"/>
<stop offset="0.684" stop-color="#888A8C"/>
<stop offset="0.735" stop-color="#8D8F91"/>
<stop offset="0.828" stop-color="#8F9193"/>
<stop offset="0.907" stop-color="#9B9D9F"/>
<stop offset="0.994" stop-color="#C0C1C3"/>
</linearGradient>
<clipPath id="clip0">
<rect width="209.208" height="44" fill="white"/>
</clipPath>
</defs>
</svg>
