<svg width="14" height="18" viewBox="0 0 14 18" fill="none" xmlns="http://www.w3.org/2000/svg">
<path d="M7.00004 0.666626C5.23193 0.666626 3.53624 1.36901 2.286 2.61925C1.03575 3.86949 0.333374 5.56518 0.333374 7.33329C0.333374 11.8333 6.20837 16.9166 6.45837 17.1333C6.60932 17.2624 6.80141 17.3333 7.00004 17.3333C7.19867 17.3333 7.39076 17.2624 7.54171 17.1333C7.83337 16.9166 13.6667 11.8333 13.6667 7.33329C13.6667 5.56518 12.9643 3.86949 11.7141 2.61925C10.4638 1.36901 8.76815 0.666626 7.00004 0.666626ZM7.00004 15.375C5.22504 13.7083 2.00004 10.1166 2.00004 7.33329C2.00004 6.00721 2.52682 4.73544 3.46451 3.79776C4.40219 2.86008 5.67396 2.33329 7.00004 2.33329C8.32612 2.33329 9.59789 2.86008 10.5356 3.79776C11.4733 4.73544 12 6.00721 12 7.33329C12 10.1166 8.77504 13.7166 7.00004 15.375ZM7.00004 3.99996C6.34077 3.99996 5.6963 4.19546 5.14814 4.56173C4.59998 4.928 4.17273 5.44859 3.92044 6.05768C3.66815 6.66677 3.60214 7.33699 3.73076 7.98359C3.85937 8.6302 4.17684 9.22414 4.64302 9.69032C5.10919 10.1565 5.70314 10.474 6.34974 10.6026C6.99634 10.7312 7.66656 10.6652 8.27565 10.4129C8.88474 10.1606 9.40533 9.73336 9.7716 9.18519C10.1379 8.63703 10.3334 7.99256 10.3334 7.33329C10.3334 6.44924 9.98218 5.60139 9.35706 4.97627C8.73194 4.35115 7.8841 3.99996 7.00004 3.99996ZM7.00004 8.99996C6.6704 8.99996 6.34817 8.90221 6.07409 8.71908C5.80001 8.53594 5.58639 8.27564 5.46024 7.9711C5.3341 7.66655 5.30109 7.33144 5.3654 7.00814C5.42971 6.68484 5.58844 6.38787 5.82153 6.15478C6.05462 5.92169 6.35159 5.76296 6.67489 5.69865C6.99819 5.63434 7.3333 5.66735 7.63785 5.79349C7.94239 5.91964 8.20269 6.13326 8.38582 6.40734C8.56896 6.68142 8.66671 7.00366 8.66671 7.33329C8.66671 7.77532 8.49111 8.19924 8.17855 8.5118C7.86599 8.82436 7.44207 8.99996 7.00004 8.99996Z" fill="#555555"/>
</svg>
