<svg width="30" height="30" viewBox="0 0 30 30" fill="none" xmlns="http://www.w3.org/2000/svg">
<path fill-rule="evenodd" clip-rule="evenodd" d="M15 0C6.71573 0 0 6.71573 0 15C0 23.2843 6.71573 30 15 30C23.2843 30 30 23.2843 30 15C30 6.71573 23.2843 0 15 0ZM21.6497 10.1409H18.5669C18.8981 9.95537 19.2293 9.69038 19.4841 9.45188C20.7325 8.23291 20.9618 6.53696 19.9936 5.58298C19.6115 5.21199 19.0764 5 18.465 5C17.6497 5 16.7325 5.34449 16.0191 6.05997C15.6115 6.45746 15.2293 7.01395 14.9745 7.54393C14.7452 7.01395 14.3631 6.45746 13.9554 6.05997C13.2166 5.34449 12.3503 5 11.5096 5C10.9236 5 10.3885 5.21199 9.98089 5.58298C9.01274 6.53696 9.24204 8.23291 10.465 9.45188C10.7452 9.69038 11.0764 9.95537 11.4331 10.1409H8.32484C7.58599 10.1409 7 10.7503 7 11.5453V16.3682H14.3376V10.7503C14.5669 10.6709 14.7707 10.5649 14.949 10.4059C14.9745 10.4059 14.9745 10.3794 14.9745 10.3794C14.9873 10.3794 14.9936 10.386 15 10.3926C15.0064 10.3992 15.0127 10.4059 15.0255 10.4059C15.1783 10.5649 15.4076 10.6709 15.6624 10.7503V16.3682H23V11.5453C23 10.7503 22.3885 10.1409 21.6497 10.1409ZM13.0382 7.09344C13.879 7.91492 14.1338 9.13389 14.0318 9.37239C14.0318 9.37239 13.9299 9.42538 13.7006 9.42538C12.9873 9.42538 12.0191 9.00139 11.4076 8.39191C10.9236 7.94142 10.7197 7.41144 10.7197 7.06695C10.7197 6.80913 10.8393 6.69643 10.9022 6.63715C10.9104 6.62941 10.9177 6.62258 10.9236 6.61646C11.1019 6.45746 11.3567 6.43096 11.5096 6.43096C12.0191 6.43096 12.6051 6.66946 13.0382 7.09344ZM16.2994 9.42538C16.0955 9.42538 15.9682 9.37239 15.9682 9.37239V9.39888C15.8408 9.10739 16.121 7.91492 16.9363 7.09344C17.3694 6.66946 17.9809 6.43096 18.465 6.43096C18.6178 6.43096 18.8981 6.45746 19.0764 6.61646C19.0814 6.62689 19.0904 6.63938 19.1016 6.65493C19.1471 6.71837 19.2293 6.83283 19.2293 7.06695C19.2293 7.41144 19.0764 7.94142 18.5924 8.39191C17.9809 9.00139 17.0127 9.42538 16.2994 9.42538ZM8.32484 24H14.3376V17.7727H7V22.622C7 23.3905 7.58599 24 8.32484 24ZM15.6624 24H21.6497C22.3885 24 23 23.3905 23 22.622V17.7727H15.6624V24Z" fill="#F5AF27"/>
</svg>
