<svg width="26" height="26" viewBox="0 0 26 26" fill="none" xmlns="http://www.w3.org/2000/svg">
<path d="M11.8076 3C6.95121 3 3 6.95121 3 11.8076C3 16.6642 6.95121 20.6151 11.8076 20.6151C16.6642 20.6151 20.6151 16.6642 20.6151 11.8076C20.6151 6.95121 16.6642 3 11.8076 3ZM11.8076 18.9892C7.84769 18.9892 4.62601 15.7675 4.62601 11.8076C4.62601 7.84773 7.84769 4.62601 11.8076 4.62601C15.7674 4.62601 18.9891 7.84769 18.9891 11.8076C18.9891 15.7674 15.7674 18.9892 11.8076 18.9892Z" fill="#222222"/>
<path d="M22.7618 21.6122L18.1005 16.951C17.7829 16.6334 17.2686 16.6334 16.9509 16.951C16.6333 17.2683 16.6333 17.7832 16.9509 18.1006L21.6122 22.7618C21.771 22.9206 21.9789 23 22.187 23C22.3949 23 22.603 22.9206 22.7618 22.7618C23.0794 22.4445 23.0794 21.9296 22.7618 21.6122Z" fill="#222222"/>
</svg>
