<svg width="24" height="24" viewBox="0 0 24 24" fill="none" xmlns="http://www.w3.org/2000/svg">
<path d="M17 17.998C17.5304 17.998 18.0391 18.2088 18.4142 18.5838C18.7893 18.9589 19 19.4676 19 19.998C19 20.5285 18.7893 21.0372 18.4142 21.4123C18.0391 21.7873 17.5304 21.998 17 21.998C16.7378 21.9981 16.4782 21.9462 16.2361 21.8456C15.9941 21.745 15.7742 21.5975 15.5893 21.4117C15.4044 21.2258 15.258 21.0053 15.1586 20.7627C15.0592 20.5201 15.0087 20.2602 15.01 19.998C15.01 18.893 15.894 17.998 17 17.998ZM1 1.99805H4.265L5.212 3.99805H20C20.1738 3.99808 20.3445 4.04339 20.4955 4.12951C20.6464 4.21564 20.7723 4.33961 20.8607 4.4892C20.9491 4.63879 20.997 4.80884 20.9997 4.98259C21.0024 5.15634 20.9598 5.32779 20.876 5.48005L17.3 11.97C17.1266 12.2818 16.873 12.5415 16.5655 12.7223C16.258 12.903 15.9077 12.9982 15.551 12.998H8.101L7.204 14.628L7.172 14.748C7.172 14.888 7.284 14.998 7.422 14.998H19V16.998H7C6.65278 16.9981 6.31151 16.9078 6.00979 16.736C5.70807 16.5641 5.45627 16.3167 5.27919 16.0181C5.10211 15.7194 5.00583 15.3797 4.99984 15.0326C4.99384 14.6854 5.07833 14.3427 5.245 14.038L6.597 11.585L3 3.99805H1V1.99805ZM7 17.998C7.53043 17.998 8.03914 18.2088 8.41421 18.5838C8.78929 18.9589 9 19.4676 9 19.998C9 20.5285 8.78929 21.0372 8.41421 21.4123C8.03914 21.7873 7.53043 21.998 7 21.998C6.73783 21.9981 6.47824 21.9462 6.23614 21.8456C5.99405 21.745 5.77423 21.5975 5.58931 21.4117C5.40439 21.2258 5.25802 21.0053 5.1586 20.7627C5.05918 20.5201 5.00868 20.2602 5.01 19.998C5.01 18.893 5.894 17.998 7 17.998ZM16 11L18.778 6.00005H6.138L8.5 11H16Z" fill="#555555"/>
</svg>
