<svg xmlns="http://www.w3.org/2000/svg" width="88" height="80"  xmlns:xlink="http://www.w3.org/1999/xlink" viewBox="289 211 88 80" preserveAspectRatio="xMidYMid meet"><rect id="svgEditorBackground" x="289" y="211" width="88" height="80" style="fill:none;stroke:none;"/><defs><style>.cls-1{fill:#222;fill-rule:evenodd}</style></defs><path class="cls-1" d="M367 280v11h-1.684l-11-11H314a1 1 0 010-2h41.338l9.662 9.662V278h2a8 8 0 008-8v-34a8 8 0 00-7-7.931V228a1 1 0 010-2 .975.975 0 01.445.116A9.994 9.994 0 01377 236v34a10 10 0 01-10 10zm-14-15h-41.313l-11 11H299v-11a10 10 0 01-10-10v-34a10 10 0 0110-10h54a10 10 0 0110 10v34a10 10 0 01-10 10zm8-44a8 8 0 00-8-8h-54a8 8 0 00-8 8v34a8 8 0 008 8h2v9.709l9.709-9.709H353a8 8 0 008-8v-34z"/><path class="cls-1" d="M337.714 231.735l-13.947 13.947a1.153 1.153 0 01-1.534 0l-6.947-6.947a1.025 1.025 0 111.449-1.449l6.265 6.265 13.265-13.265a1.025 1.025 0 111.449 1.449z"/></svg>