<svg width="24" height="24" viewBox="0 0 24 24" fill="none" xmlns="http://www.w3.org/2000/svg">
<path d="M23.9996 12.0222C23.9997 12.0148 23.9999 12.0074 23.9999 11.9999C23.9999 8.79464 22.7517 5.7812 20.4853 3.51471C18.2188 1.24823 15.2053 0 12 0C8.79475 0 5.78132 1.24823 3.51483 3.51471C1.25388 5.77567 0.00649703 8.77996 0.000403318 11.9764V11.9779C0.000356444 11.9853 0.00012207 11.9926 0.00012207 11.9999C0.00012207 15.2052 1.2483 18.2187 3.51479 20.4851C5.77973 22.7501 8.79063 23.9981 11.9934 23.9998C11.9958 23.9998 11.9981 24 12.0004 24C12.0016 24 12.0029 23.9998 12.0041 23.9998C15.2079 23.9988 18.2197 22.7507 20.4853 20.4851C22.7461 18.2243 23.9934 15.2201 23.9996 12.0238C23.9996 12.0233 23.9996 12.0227 23.9996 12.0222ZM17.6619 20.9498L16.6305 20.2687C16.3064 20.0547 15.8703 20.1439 15.6563 20.468C15.4423 20.792 15.5315 21.2282 15.8556 21.4422L16.25 21.7027C15.0724 22.2205 13.7834 22.5299 12.4297 22.5842L11.8756 21.4761C11.7019 21.1288 11.2796 20.988 10.9322 21.1616C10.5849 21.3353 10.4441 21.7577 10.6178 22.105L10.8297 22.5287C9.48915 22.3807 8.2234 21.9817 7.08022 21.3796L7.15442 20.1445C7.17772 19.7569 6.88236 19.4238 6.4947 19.4005C6.10813 19.3778 5.77396 19.6725 5.75066 20.0602L5.72254 20.5279C4.66467 19.7471 3.75666 18.7747 3.05026 17.6621L3.73125 16.6306C3.94519 16.3065 3.85594 15.8704 3.53185 15.6564C3.20776 15.4425 2.77164 15.5318 2.5577 15.8558L2.29731 16.2502C1.77944 15.0726 1.47002 13.7837 1.41569 12.4299L2.52376 11.8757C2.87106 11.702 3.01177 11.2797 2.8381 10.9324C2.66439 10.5851 2.24209 10.4443 1.89475 10.618L1.47124 10.8298C1.61922 9.48927 2.01831 8.22347 2.62037 7.08029L3.85543 7.15449C3.86977 7.15533 3.88407 7.15576 3.89827 7.15576C4.26727 7.15576 4.57701 6.86804 4.59947 6.49477C4.62272 6.10712 4.32741 5.77403 3.9398 5.75073L3.47204 5.72261C4.25283 4.66469 5.22529 3.75663 6.338 3.05019L7.36967 3.73123C7.48896 3.80998 7.6234 3.84762 7.75638 3.84762C7.98466 3.84762 8.20863 3.73657 8.34382 3.53178C8.55775 3.20768 8.46846 2.77156 8.14437 2.55763L7.74996 2.29728C8.92755 1.77941 10.2165 1.47004 11.5701 1.41571L12.1244 2.52388C12.2476 2.7702 12.4958 2.91261 12.7537 2.91261C12.8594 2.91261 12.9667 2.8887 13.0677 2.83817C13.415 2.66445 13.5558 2.24211 13.382 1.89482L13.1702 1.47121C14.5108 1.61919 15.7766 2.01829 16.9199 2.62044L16.8458 3.85554C16.8226 4.24319 17.118 4.57624 17.5056 4.59949C17.52 4.60038 17.5342 4.60075 17.5484 4.60075C17.9174 4.60075 18.2272 4.31299 18.2496 3.93968L18.2776 3.4722C19.3355 4.25299 20.2435 5.22545 20.9499 6.33817L20.2688 7.3696C20.0548 7.69364 20.144 8.12981 20.4681 8.34379C20.5873 8.42259 20.7218 8.46023 20.8549 8.46023C21.0831 8.46023 21.307 8.34923 21.4422 8.14448L21.7027 7.75003C22.2206 8.92767 22.5299 10.2166 22.5843 11.5703L21.4761 12.1243C21.1288 12.298 20.988 12.7203 21.1617 13.0677C21.2849 13.3141 21.5332 13.4566 21.7911 13.4566C21.8968 13.4566 22.0041 13.4327 22.105 13.3822L22.5287 13.1703C22.3807 14.5108 21.9816 15.7766 21.3795 16.9198L20.1443 16.8457C19.7566 16.8228 19.4236 17.1179 19.4003 17.5055C19.3771 17.8932 19.6725 18.2262 20.0601 18.2495L20.5278 18.2775C19.7471 19.3353 18.7746 20.2433 17.6619 20.9498Z" fill="#E22F22"/>
<path d="M12.0001 4.51868C7.87497 4.51868 4.51892 7.87477 4.51892 11.9999C4.51892 16.125 7.87497 19.4811 12.0001 19.4811C16.1252 19.4811 19.4813 16.1251 19.4813 11.9999C19.4813 7.87477 16.1252 4.51868 12.0001 4.51868ZM12.0001 13.5561C11.142 13.5561 10.4438 12.858 10.4438 11.9999C10.4438 11.1418 11.142 10.4437 12.0001 10.4437C12.8582 10.4437 13.5563 11.1418 13.5563 11.9999C13.5563 12.858 12.8582 13.5561 12.0001 13.5561ZM5.92516 11.9999C5.92516 11.1449 6.10305 10.3308 6.42326 9.59207L9.15666 11.1702C9.07965 11.4336 9.03756 11.7119 9.03756 11.9999C9.03756 12.288 9.07965 12.5662 9.15666 12.8297L6.42321 14.4077C6.1031 13.669 5.92516 12.8549 5.92516 11.9999ZM14.8435 11.1702L17.5769 9.59207C17.8971 10.3308 18.075 11.1449 18.075 11.9999C18.075 12.8549 17.8971 13.669 17.5769 14.4077L14.8435 12.8297C14.9205 12.5662 14.9626 12.288 14.9626 11.9999C14.9626 11.7119 14.9205 11.4336 14.8435 11.1702ZM16.8722 8.37515L14.1388 9.95319C13.7548 9.55208 13.2598 9.25846 12.7033 9.12243V5.96584C14.4057 6.163 15.896 7.06646 16.8722 8.37515ZM11.297 5.96584V9.12243C10.7404 9.25846 10.2454 9.55204 9.86138 9.95319L7.12802 8.37515C8.10419 7.06646 9.59448 6.163 11.297 5.96584ZM7.12802 15.6247L9.86138 14.0466C10.2454 14.4477 10.7404 14.7413 11.297 14.8774V18.034C9.59448 17.8368 8.10419 16.9334 7.12802 15.6247ZM12.7032 18.034V14.8774C13.2597 14.7413 13.7548 14.4478 14.1388 14.0466L16.8722 15.6247C15.896 16.9334 14.4057 17.8368 12.7032 18.034Z" fill="#E22F22"/>
</svg>
