<svg width="24" height="24" viewBox="0 0 24 24" fill="none" xmlns="http://www.w3.org/2000/svg">
<path d="M22.9953 19.815C22.968 18.967 22.5874 18.1594 21.9509 17.5987L15.2051 11.551L19.1781 7.57797L22.8851 5.35373L18.6464 1.11503L16.4223 4.82199L12.2988 8.94546L10.4465 7.2848C10.6831 6.53332 10.7324 5.73582 10.5877 4.95234C10.4098 3.98906 9.94836 3.11261 9.2534 2.41765C7.77115 0.9354 5.51963 0.576833 3.65089 1.52535L2.85234 1.93064L5.26261 4.34087L4.34394 5.25955L1.93375 2.84927L1.52842 3.64782C0.579861 5.51665 0.938471 7.76808 2.42072 9.25033C3.34879 10.1784 4.57696 10.6692 5.83073 10.6692C6.31493 10.6692 6.80302 10.596 7.2789 10.4464L8.94233 12.3019L7.40548 13.8387L5.62096 12.0542L4.70233 12.9728L5.77686 14.0474L1.91643 17.9078C0.765164 19.059 0.765164 20.9324 1.91643 22.0837C2.49208 22.6593 3.24823 22.9471 4.00438 22.9471C4.76054 22.9471 5.51669 22.6593 6.09234 22.0836L9.95273 18.2232L11.0273 19.2977L11.9459 18.3791L10.1614 16.5946L11.5478 15.2081L17.5953 21.9538C18.1561 22.5903 18.9638 22.9711 19.8118 22.9984C19.8445 22.9994 19.8772 23 19.9098 23C20.7246 23 21.5155 22.6737 22.0931 22.0961C22.6938 21.4955 23.0226 20.664 22.9953 19.815ZM18.9044 3.21022L20.7899 5.09577L18.8761 6.24409L17.756 5.12404L18.9044 3.21022ZM16.9381 6.14336L17.8568 7.06204L14.2363 10.6825L13.2676 9.81395L16.9381 6.14336ZM5.17371 21.165C4.52894 21.8098 3.47983 21.8098 2.83506 21.165C2.19033 20.5203 2.19033 19.4712 2.83506 18.8264L6.69549 14.966L9.0341 17.3046L5.17371 21.165ZM9.24279 15.676L8.32411 14.7574L9.81082 13.2706L10.6793 14.2394L9.24279 15.676ZM21.1744 21.1776C20.8215 21.5305 20.3517 21.7164 19.8536 21.6999C19.3547 21.6839 18.8985 21.4686 18.569 21.0937L7.64288 8.90618L7.21567 9.08703C5.88365 9.6509 4.36204 9.35443 3.33935 8.33174C2.48373 7.47612 2.14023 6.2699 2.37486 5.12773L4.34398 7.0969L7.09992 4.34096L5.13071 2.37174C6.27314 2.13725 7.4791 2.4807 8.33472 3.33628C9.35993 4.36144 9.65522 5.88583 9.08702 7.21975L8.90483 7.64756L21.0858 18.5679L21.0905 18.5721C21.4654 18.9017 21.6807 19.3579 21.6968 19.8567C21.7128 20.3556 21.5273 20.8247 21.1744 21.1776Z" fill="#E22F22"/>
</svg>
