<svg width="24" height="24" viewBox="0 0 24 24" fill="none" xmlns="http://www.w3.org/2000/svg">
<path d="M5.72704 1C5.29221 1 4.86237 1.15819 4.50486 1.44126L4.45498 1.46874L4.42837 1.49371L1.8302 4.17459L1.85514 4.19956C1.05449 4.94222 0.805066 6.0512 1.15343 7.01032C1.15509 7.01448 1.15177 7.0303 1.15343 7.03529C1.85764 9.05677 3.66181 12.9549 7.18119 16.48C10.7147 20.0184 14.6614 21.7501 16.6128 22.5161H16.6377C17.1271 22.6777 17.6499 22.7099 18.1554 22.6095C18.6609 22.5091 19.1319 22.2796 19.5227 21.9433L19.5477 21.9183L19.5743 21.8917L22.1483 19.3165C22.8384 18.6255 22.8384 17.4316 22.1483 16.7406L18.7711 13.3587L18.7445 13.3062C18.0544 12.6152 16.8364 12.6152 16.1463 13.3062L16.1214 13.3328L14.4835 14.973C13.2355 14.3725 12.0876 13.5825 11.0805 12.631C9.72033 11.3297 9.0236 9.83356 8.76919 9.24743L10.4304 7.58229C11.1304 6.88127 11.1412 5.72067 10.4054 5.03297L10.4304 5.00632L10.353 4.92889L7.02738 1.49371L6.99994 1.46874L6.94839 1.44126C6.60243 1.16022 6.17167 1.0047 5.72621 1H5.72704ZM5.72704 2.66514C5.78857 2.66514 5.84926 2.69511 5.90996 2.7434L9.23561 6.15111L9.28716 6.20356L9.31211 6.22853C9.30628 6.22437 9.36199 6.30929 9.26056 6.4117L7.18202 8.49312L6.79125 8.85779L6.97417 9.37731C6.97417 9.37731 7.93029 11.9358 9.9365 13.8532L10.1169 14.0089C12.0491 15.7756 14.3272 16.7397 14.3272 16.7397L14.8468 16.9745L15.2376 16.5849L17.3161 14.5034C17.4575 14.3619 17.4325 14.3619 17.5739 14.5034L20.9785 17.9111C21.1199 18.0527 21.1199 18.0027 20.9785 18.1443L18.4319 20.6944C18.0494 21.0241 17.6445 21.0907 17.1598 20.9292C15.2742 20.1882 11.6143 18.5755 8.35099 15.3094C5.06274 12.0149 3.34421 8.27666 2.714 6.46415C2.58679 6.1253 2.67824 5.62326 2.9734 5.37099L2.99834 5.34601L3.02494 5.31854L5.54579 2.7434C5.59527 2.69749 5.65892 2.66988 5.72621 2.66514H5.72704Z" fill="#E22F22"/>
</svg>
