<svg width="32" height="32" viewBox="0 0 32 32" fill="none" xmlns="http://www.w3.org/2000/svg">
<path d="M20.912 0H11.088C2.12267 0 0 2.12267 0 11.088V20.912C0 29.8773 2.12267 32 11.088 32H20.912C29.8773 32 32 29.8773 32 20.912V11.088C32 2.12267 29.8547 0 20.912 0ZM25.8347 22.8307H23.5093C22.6293 22.8307 22.3573 22.1307 20.776 20.528C19.3987 19.1947 18.7893 19.0147 18.4507 19.0147C17.976 19.0147 17.84 19.1507 17.84 19.8053V21.9053C17.84 22.4707 17.66 22.8093 16.1693 22.8093C13.708 22.8093 10.9747 21.3187 9.056 18.54C6.16533 14.476 5.37333 11.4267 5.37333 10.7947C5.37333 10.456 5.50933 10.14 6.164 10.14H8.48933C9.076 10.14 9.30267 10.4107 9.52933 11.0427C10.68 14.3627 12.6 17.276 13.3907 17.276C13.684 17.276 13.82 17.14 13.82 16.396V12.9613C13.7293 11.38 12.8933 11.2453 12.8933 10.6813C12.8933 10.4093 13.12 10.1387 13.48 10.1387H17.1387C17.636 10.1387 17.816 10.4093 17.816 10.996V15.6267C17.816 16.1227 18.0427 16.304 18.1773 16.304C18.4707 16.304 18.72 16.1227 19.2613 15.5813C20.9333 13.7067 22.1293 10.816 22.1293 10.816C22.288 10.4773 22.5587 10.1613 23.1467 10.1613H25.472C26.172 10.1613 26.3307 10.5213 26.172 11.0187C25.8787 12.3747 23.0333 16.3933 23.0333 16.3933C22.7853 16.8 22.6947 16.98 23.0333 17.4333C23.2813 17.772 24.0947 18.472 24.6373 19.104C25.6307 20.2333 26.3973 21.1813 26.6013 21.8373C26.828 22.4907 26.488 22.8293 25.8333 22.8293L25.8347 22.8307Z" fill="#AAAAAA"/>
</svg>
