<svg width="34" height="34" viewBox="0 0 34 34" fill="none" xmlns="http://www.w3.org/2000/svg">
<path d="M26.6935 24.9925L22.1596 20.4586C23.2511 19.0054 23.8404 17.2367 23.8384 15.4192C23.8384 10.7769 20.0615 7 15.4192 7C10.7769 7 7 10.7769 7 15.4192C7 20.0615 10.7769 23.8384 15.4192 23.8384C17.2367 23.8404 19.0054 23.2511 20.4586 22.1596L24.9925 26.6935C25.222 26.8986 25.5213 27.0081 25.829 26.9995C26.1367 26.9909 26.4295 26.8648 26.6472 26.6472C26.8648 26.4295 26.9909 26.1367 26.9995 25.829C27.0081 25.5213 26.8986 25.222 26.6935 24.9925ZM9.40549 15.4192C9.40549 14.2298 9.75818 13.0671 10.419 12.0782C11.0798 11.0892 12.019 10.3184 13.1179 9.86325C14.2167 9.40809 15.4259 9.289 16.5924 9.52104C17.759 9.75308 18.8305 10.3258 19.6715 11.1669C20.5126 12.0079 21.0853 13.0794 21.3174 14.246C21.5494 15.4125 21.4303 16.6217 20.9751 17.7205C20.52 18.8194 19.7492 19.7586 18.7602 20.4194C17.7713 21.0802 16.6086 21.4329 15.4192 21.4329C13.8249 21.431 12.2964 20.7968 11.169 19.6694C10.0416 18.542 9.4074 17.0135 9.40549 15.4192Z" fill="white"/>
</svg>
