<svg width="30" height="30" viewBox="0 0 30 30" fill="none" xmlns="http://www.w3.org/2000/svg">
<path d="M27.0117 20.4492L25.0195 19.2984C25.38 18.9271 25.7935 18.6112 26.2465 18.3609C26.5426 18.194 26.7608 17.9168 26.8535 17.5897C26.9463 17.2626 26.9061 16.9121 26.7416 16.6146C26.5772 16.317 26.3019 16.0965 25.9756 16.0009C25.6493 15.9054 25.2985 15.9426 24.9996 16.1045C24.1347 16.5832 23.3682 17.2214 22.7408 17.9854L17.5781 15L22.7396 12.0199C23.3669 12.784 24.1334 13.4222 24.9984 13.9008C25.1467 13.9844 25.31 14.0378 25.4791 14.0579C25.6481 14.078 25.8194 14.0645 25.9831 14.0181C26.1469 13.9716 26.2998 13.8932 26.4331 13.7874C26.5664 13.6815 26.6774 13.5503 26.7598 13.4013C26.8421 13.2524 26.8941 13.0886 26.9128 12.9194C26.9315 12.7502 26.9164 12.579 26.8686 12.4156C26.8208 12.2523 26.7411 12.1 26.6341 11.9677C26.5271 11.8353 26.395 11.7254 26.2453 11.6443C25.7924 11.3939 25.379 11.078 25.0183 10.7068L27.0105 9.55605C27.1629 9.47458 27.2974 9.36331 27.4059 9.22884C27.5144 9.09437 27.5948 8.93945 27.6422 8.7733C27.6897 8.60715 27.7033 8.43315 27.6821 8.26165C27.661 8.09015 27.6056 7.92465 27.5193 7.77498C27.4329 7.62532 27.3173 7.49454 27.1794 7.39043C27.0415 7.28632 26.884 7.21101 26.7164 7.16896C26.5488 7.12691 26.3745 7.11898 26.2038 7.14565C26.033 7.17233 25.8694 7.23305 25.7226 7.32422L23.7304 8.47441C23.5886 7.97633 23.521 7.46001 23.5301 6.94219C23.5338 6.77261 23.504 6.60395 23.4424 6.4459C23.3809 6.28785 23.2887 6.1435 23.1712 6.02113C23.0538 5.89877 22.9133 5.80079 22.7579 5.73281C22.6025 5.66483 22.4352 5.6282 22.2656 5.625H22.2416C21.9038 5.62494 21.5795 5.75745 21.3385 5.99403C21.0974 6.2306 20.9588 6.55234 20.9525 6.89004C20.9344 7.87786 21.1034 8.86019 21.4506 9.78516L16.289 12.767V6.80742C17.2643 6.64624 18.2001 6.30169 19.047 5.79199C19.3399 5.61554 19.5507 5.32997 19.633 4.99812C19.7153 4.66627 19.6624 4.31531 19.4859 4.02246C19.3095 3.72961 19.0239 3.51885 18.692 3.43655C18.3602 3.35424 18.0092 3.40714 17.7164 3.58359C17.2724 3.85041 16.7914 4.05004 16.289 4.17598V2.22656C16.289 1.88468 16.1532 1.5568 15.9115 1.31506C15.6697 1.07331 15.3419 0.9375 15 0.9375C14.6581 0.9375 14.3302 1.07331 14.0885 1.31506C13.8467 1.5568 13.7109 1.88468 13.7109 2.22656V4.17598C13.2085 4.05004 12.7275 3.85041 12.2836 3.58359C11.9907 3.40714 11.6398 3.35424 11.3079 3.43655C10.9761 3.51885 10.6905 3.72961 10.514 4.02246C10.3376 4.31531 10.2847 4.66627 10.367 4.99812C10.4493 5.32997 10.6601 5.61554 10.9529 5.79199C11.7998 6.30169 12.7357 6.64624 13.7109 6.80742V12.767L8.54939 9.78516C8.89715 8.8599 9.06654 7.87716 9.04861 6.88887C9.04231 6.55117 8.90373 6.22943 8.66266 5.99285C8.42159 5.75628 8.0973 5.62377 7.75955 5.62383H7.73435C7.56506 5.62695 7.39804 5.6634 7.24284 5.73109C7.08764 5.79877 6.94729 5.89637 6.82982 6.01831C6.71234 6.14025 6.62004 6.28413 6.55818 6.44175C6.49633 6.59937 6.46613 6.76762 6.46931 6.93691C6.47876 7.45549 6.41143 7.97261 6.26951 8.47148L4.27732 7.32422C4.13062 7.23671 3.96798 7.17923 3.79887 7.15512C3.62976 7.13101 3.45754 7.14076 3.29223 7.18379C3.12691 7.22682 2.9718 7.30228 2.83591 7.40578C2.70001 7.50928 2.58604 7.63875 2.50062 7.78668C2.4152 7.93462 2.36004 8.09805 2.33833 8.26749C2.31662 8.43692 2.32881 8.60898 2.37418 8.77367C2.41956 8.93836 2.49721 9.09238 2.60263 9.2268C2.70805 9.36121 2.83913 9.47333 2.98826 9.55664L4.98044 10.7074C4.61982 11.0786 4.20638 11.3945 3.75349 11.6449C3.60381 11.726 3.47167 11.8359 3.36469 11.9682C3.2577 12.1006 3.17799 12.2529 3.13016 12.4162C3.08233 12.5796 3.06733 12.7508 3.08601 12.92C3.10469 13.0892 3.1567 13.253 3.23902 13.4019C3.32134 13.5509 3.43235 13.6821 3.56565 13.788C3.69894 13.8938 3.85188 13.9722 4.01563 14.0186C4.17938 14.0651 4.35071 14.0786 4.51973 14.0585C4.68874 14.0384 4.8521 13.985 5.00037 13.9014C5.86529 13.4226 6.63172 12.7844 7.25916 12.0205L12.4219 15L7.26033 17.9801C6.63289 17.2161 5.86646 16.5779 5.00154 16.0992C4.85327 16.0156 4.68991 15.9622 4.5209 15.9421C4.35188 15.922 4.18056 15.9355 4.0168 15.9819C3.85305 16.0284 3.70011 16.1068 3.56682 16.2126C3.43352 16.3185 3.32251 16.4497 3.24019 16.5986C3.15787 16.7476 3.10586 16.9114 3.08718 17.0806C3.0685 17.2498 3.0835 17.421 3.13134 17.5844C3.17917 17.7477 3.25887 17.9 3.36586 18.0323C3.47284 18.1647 3.60499 18.2746 3.75466 18.3557C4.20755 18.6061 4.62099 18.922 4.98162 19.2932L2.98826 20.4492C2.83913 20.5325 2.70805 20.6447 2.60263 20.7791C2.49721 20.9135 2.41956 21.0675 2.37418 21.2322C2.32881 21.3969 2.31662 21.5689 2.33833 21.7384C2.36004 21.9078 2.4152 22.0712 2.50062 22.2192C2.58604 22.3671 2.70001 22.4966 2.83591 22.6001C2.9718 22.7036 3.12691 22.779 3.29223 22.8221C3.45754 22.8651 3.62976 22.8748 3.79887 22.8507C3.96798 22.8266 4.13062 22.7692 4.27732 22.6816L6.26951 21.5314C6.4114 22.0295 6.47892 22.5458 6.4699 23.0637C6.46394 23.4052 6.59375 23.7351 6.83082 23.9809C7.0679 24.2268 7.39286 24.3685 7.73435 24.375H7.75837C8.09613 24.3751 8.42042 24.2425 8.66149 24.006C8.90256 23.7694 9.04114 23.4477 9.04744 23.11C9.06559 22.1221 8.8966 21.1398 8.54939 20.2148L13.7109 17.233V23.1926C12.7357 23.3538 11.7998 23.6983 10.9529 24.208C10.6601 24.3845 10.4493 24.67 10.367 25.0019C10.2847 25.3337 10.3376 25.6847 10.514 25.9775C10.6905 26.2704 10.9761 26.4812 11.3079 26.5635C11.6398 26.6458 11.9907 26.5929 12.2836 26.4164C12.7275 26.1496 13.2085 25.95 13.7109 25.824V27.7734C13.7109 28.1153 13.8467 28.4432 14.0885 28.6849C14.3302 28.9267 14.6581 29.0625 15 29.0625C15.3419 29.0625 15.6697 28.9267 15.9115 28.6849C16.1532 28.4432 16.289 28.1153 16.289 27.7734V25.824C16.7914 25.95 17.2724 26.1496 17.7164 26.4164C18.0092 26.5929 18.3602 26.6458 18.692 26.5635C19.0239 26.4811 19.3095 26.2704 19.4859 25.9775C19.6624 25.6847 19.7153 25.3337 19.633 25.0019C19.5507 24.67 19.3399 24.3845 19.047 24.208C18.2001 23.6983 17.2643 23.3538 16.289 23.1926V17.233L21.4506 20.2148C21.1028 21.1401 20.9334 22.1228 20.9513 23.1111C20.9576 23.4488 21.0962 23.7706 21.3373 24.0071C21.5784 24.2437 21.9026 24.3762 22.2404 24.3762H22.2656C22.4349 24.373 22.6019 24.3366 22.7571 24.2689C22.9123 24.2012 23.0527 24.1036 23.1701 23.9817C23.2876 23.8598 23.3799 23.7159 23.4418 23.5583C23.5036 23.4006 23.5338 23.2324 23.5306 23.0631C23.5212 22.5445 23.5885 22.0274 23.7304 21.5285L25.7226 22.6787C25.8693 22.7729 26.0336 22.8364 26.2055 22.8653C26.3775 22.8941 26.5535 22.8879 26.7229 22.8468C26.8923 22.8057 27.0516 22.7307 27.1912 22.6262C27.3309 22.5218 27.4478 22.3902 27.5351 22.2392C27.6223 22.0883 27.6781 21.9213 27.6989 21.7482C27.7198 21.5751 27.7053 21.3996 27.6564 21.2322C27.6075 21.0649 27.5251 20.9092 27.4143 20.7747C27.3035 20.6401 27.1665 20.5294 27.0117 20.4492Z" fill="#226FE2"/>
</svg>
