<svg width="32" height="32" viewBox="0 0 32 32" fill="none" xmlns="http://www.w3.org/2000/svg">
<path d="M19.1458 24.4792V21.2083C19.1458 20.5139 18.9444 20.1667 18.5417 20.1667C18.3056 20.1667 18.0764 20.2778 17.8542 20.5V25.1667C18.0764 25.3889 18.3056 25.5 18.5417 25.5C18.9444 25.5 19.1458 25.1597 19.1458 24.4792ZM22.9792 21.9375H24.3542V21.2292C24.3542 20.5208 24.125 20.1667 23.6667 20.1667C23.2083 20.1667 22.9792 20.5208 22.9792 21.2292V21.9375ZM11.0833 16.3958V17.8542H9.41667V26.6667H7.875V17.8542H6.25V16.3958H11.0833ZM15.2708 19.0208V26.6667H13.875V25.8333C13.3333 26.4583 12.8056 26.7708 12.2917 26.7708C11.8333 26.7708 11.5417 26.5764 11.4167 26.1875C11.3333 25.9514 11.2917 25.5764 11.2917 25.0625V19.0208H12.6667V24.6458C12.6667 24.9792 12.6736 25.1597 12.6875 25.1875C12.7014 25.3958 12.8056 25.5 13 25.5C13.2778 25.5 13.5694 25.2847 13.875 24.8542V19.0208H15.2708ZM20.5208 21.3333V24.375C20.5208 25.0972 20.4722 25.6042 20.375 25.8958C20.2083 26.4792 19.8403 26.7708 19.2708 26.7708C18.7847 26.7708 18.3125 26.4861 17.8542 25.9167V26.6667H16.4583V16.3958H17.8542V19.75C18.2986 19.1944 18.7708 18.9167 19.2708 18.9167C19.8403 18.9167 20.2083 19.2083 20.375 19.7917C20.4722 20.0833 20.5208 20.5972 20.5208 21.3333ZM25.75 24.0208V24.2083C25.75 24.6111 25.7361 24.9097 25.7083 25.1042C25.6667 25.4097 25.5625 25.6875 25.3958 25.9375C25.0208 26.4931 24.4653 26.7708 23.7292 26.7708C23.0069 26.7708 22.4444 26.5069 22.0417 25.9792C21.75 25.6042 21.6042 25.0069 21.6042 24.1875V21.5C21.6042 20.6806 21.7431 20.0833 22.0208 19.7083C22.4236 19.1806 22.9792 18.9167 23.6875 18.9167C24.3958 18.9167 24.9375 19.1806 25.3125 19.7083C25.6042 20.1111 25.75 20.7083 25.75 21.5V23.0833H22.9792V24.4375C22.9792 25.1458 23.2153 25.5 23.6875 25.5C24.0208 25.5 24.2292 25.3194 24.3125 24.9583C24.3125 24.9444 24.316 24.8958 24.3229 24.8125C24.3299 24.7292 24.3333 24.6146 24.3333 24.4688V24.0208H25.75ZM16.3542 6.85417V10.1042C16.3542 10.8125 16.1319 11.1667 15.6875 11.1667C15.2431 11.1667 15.0208 10.8125 15.0208 10.1042V6.85417C15.0208 6.13194 15.2431 5.77083 15.6875 5.77083C16.1319 5.77083 16.3542 6.13194 16.3542 6.85417ZM27.4583 21.7083C27.4583 19.25 27.3264 17.4444 27.0625 16.2917C26.9236 15.6806 26.625 15.1701 26.1667 14.7604C25.7083 14.3507 25.1806 14.1111 24.5833 14.0417C22.6944 13.8333 19.8333 13.7292 16 13.7292C12.1806 13.7292 9.32639 13.8333 7.4375 14.0417C6.82639 14.1111 6.29514 14.3507 5.84375 14.7604C5.39236 15.1701 5.09722 15.6806 4.95833 16.2917C4.68056 17.5 4.54167 19.3056 4.54167 21.7083C4.54167 24.1528 4.68056 25.9583 4.95833 27.125C5.09722 27.7222 5.39236 28.2292 5.84375 28.6458C6.29514 29.0625 6.81944 29.3056 7.41667 29.375C9.31944 29.5833 12.1806 29.6875 16 29.6875C19.8194 29.6875 22.6806 29.5833 24.5833 29.375C25.1806 29.3056 25.7049 29.0625 26.1562 28.6458C26.6076 28.2292 26.9028 27.7222 27.0417 27.125C27.3194 25.9583 27.4583 24.1528 27.4583 21.7083ZM11.7292 8.14583L13.6042 1.97917H12.0417L10.9792 6.04167L9.875 1.97917H8.25C8.34722 2.29861 8.50694 2.77778 8.72917 3.41667L9.22917 4.85417C9.71528 6.28472 10.0347 7.38194 10.1875 8.14583V12.3333H11.7292V8.14583ZM17.75 9.83333V7.125C17.75 6.31944 17.6042 5.71528 17.3125 5.3125C16.9097 4.78472 16.3681 4.52083 15.6875 4.52083C14.9792 4.52083 14.4375 4.78472 14.0625 5.3125C13.7708 5.71528 13.625 6.31944 13.625 7.125V9.83333C13.625 10.6389 13.7708 11.2431 14.0625 11.6458C14.4375 12.1736 14.9792 12.4375 15.6875 12.4375C16.3681 12.4375 16.9097 12.1736 17.3125 11.6458C17.6042 11.2708 17.75 10.6667 17.75 9.83333ZM21.5208 12.3333H22.9167V4.625H21.5208V10.5208C21.2153 10.9514 20.9236 11.1667 20.6458 11.1667C20.4375 11.1667 20.3264 11.0556 20.3125 10.8333C20.2986 10.8056 20.2917 10.625 20.2917 10.2917V4.625H18.8958V10.7292C18.8958 11.2431 18.9375 11.625 19.0208 11.875C19.1736 12.25 19.4722 12.4375 19.9167 12.4375C20.4167 12.4375 20.9514 12.125 21.5208 11.5V12.3333ZM32 6V26C32 27.6528 31.4132 29.066 30.2396 30.2396C29.066 31.4132 27.6528 32 26 32H6C4.34722 32 2.93403 31.4132 1.76042 30.2396C0.586806 29.066 0 27.6528 0 26V6C0 4.34722 0.586806 2.93403 1.76042 1.76042C2.93403 0.586806 4.34722 0 6 0H26C27.6528 0 29.066 0.586806 30.2396 1.76042C31.4132 2.93403 32 4.34722 32 6Z" fill="#AAAAAA"/>
</svg>
